<svg xmlns="http://www.w3.org/2000/svg" width="9.729" height="9.908" viewBox="0 0 9.729 9.908"><defs><style>.a{fill:#00acff;}</style></defs><g transform="translate(0)"><path class="a" d="M8.253,0H8.237A4.86,4.86,0,0,0,4.425,7.889L3.716,9.538a.264.264,0,0,0,.138.348.27.27,0,0,0,.151.019l2.6-.457a4.683,4.683,0,0,0,1.619.281A4.864,4.864,0,0,0,8.253,0ZM6.586,3.892H8.019a.265.265,0,1,1,0,.531H6.586a.265.265,0,1,1,0-.531ZM9.878,5.75H6.586a.265.265,0,0,1,0-.531H9.878a.265.265,0,1,1,0,.531Z" transform="translate(-3.366)"/></g></svg>