<svg xmlns="http://www.w3.org/2000/svg" width="5.29" height="5.387" viewBox="0 0 5.29 5.387"><defs><style>.a{fill:#00acff;}</style></defs><g transform="translate(0)"><path class="a" d="M6.023,0H6.015A2.643,2.643,0,0,0,3.942,4.29l-.385.9a.144.144,0,0,0,.075.189.147.147,0,0,0,.082.01l1.413-.248a2.546,2.546,0,0,0,.88.153A2.645,2.645,0,0,0,6.023,0ZM5.117,2.116H5.9a.144.144,0,1,1,0,.289H5.117a.144.144,0,0,1,0-.289Zm1.79,1.01H5.117a.144.144,0,0,1,0-.289h1.79a.144.144,0,1,1,0,.289Z" transform="translate(-3.366)"/></g></svg>