<svg xmlns="http://www.w3.org/2000/svg" width="110.152" height="96.804" viewBox="0 0 110.152 96.804"><defs><style>.a{fill:#00acff;}</style></defs><g transform="translate(0 -31.022)"><g transform="translate(0 31.022)"><path class="a" d="M68.2,31.022H9.681A9.668,9.668,0,0,0,0,40.7V79.428A9.668,9.668,0,0,0,9.681,89.11h3.227v9.681a3.227,3.227,0,0,0,4.776,2.84c.065-.065.194-.065.258-.129C35.7,89.6,31.717,92.251,35.692,89.626a3.244,3.244,0,0,1,1.742-.516H68.2a9.668,9.668,0,0,0,9.681-9.681V40.7A9.668,9.668,0,0,0,68.2,31.022ZM42.383,69.747H16.135c-4.254,0-4.271-6.454,0-6.454H42.383C46.637,63.293,46.654,69.747,42.383,69.747ZM61.745,56.839H16.135c-4.254,0-4.271-6.454,0-6.454h45.61C66,50.385,66.017,56.839,61.745,56.839Z" transform="translate(0 -31.022)"/></g><g transform="translate(32.271 56.839)"><path class="a" d="M218.2,151.022H202.064v22.59a16.141,16.141,0,0,1-16.135,16.135h-29.8L150,193.813v5.615a9.668,9.668,0,0,0,9.681,9.681h31.733L209.938,221.5a3.243,3.243,0,0,0,5.035-2.711V209.11H218.2a9.668,9.668,0,0,0,9.681-9.681V160.7A9.668,9.668,0,0,0,218.2,151.022Z" transform="translate(-150 -151.022)"/></g></g></svg>