<svg xmlns="http://www.w3.org/2000/svg" width="5.748" height="5.854" viewBox="0 0 5.748 5.854"><defs><style>.a{opacity:0;}.b{fill:#fff;}</style></defs><g class="a"><g transform="translate(0)"><path class="b" d="M6.254,0H6.244A2.872,2.872,0,0,0,3.992,4.662l-.419.974a.156.156,0,0,0,.082.205.159.159,0,0,0,.089.011l1.536-.27a2.767,2.767,0,0,0,.957.166A2.874,2.874,0,0,0,6.254,0ZM5.269,2.3h.847a.157.157,0,1,1,0,.314H5.269a.157.157,0,1,1,0-.314ZM7.213,3.4H5.269a.157.157,0,1,1,0-.314H7.213a.157.157,0,0,1,0,.314Z" transform="translate(-3.366)"/></g></g></svg>