<svg xmlns="http://www.w3.org/2000/svg" width="5.645" height="5.748" viewBox="0 0 5.645 5.748"><defs><style>.a{fill:#00acff;}</style></defs><g transform="translate(0)"><path class="a" d="M6.2,0H6.192A2.82,2.82,0,0,0,3.981,4.577l-.411.956a.153.153,0,0,0,.08.2.157.157,0,0,0,.088.011l1.508-.265a2.717,2.717,0,0,0,.94.163A2.822,2.822,0,0,0,6.2,0ZM5.234,2.258h.832a.154.154,0,0,1,0,.308H5.234a.154.154,0,0,1,0-.308Zm1.91,1.078H5.234a.154.154,0,0,1,0-.308h1.91a.154.154,0,1,1,0,.308Z" transform="translate(-3.366)"/></g></svg>