<svg xmlns="http://www.w3.org/2000/svg" width="37.329" height="68" viewBox="0 0 37.329 68"><defs><style>.a{fill:#fff;}</style></defs><g transform="translate(-115.469)"><g transform="translate(127.422 42.624)"><path class="a" d="M212.18,320.937a6.707,6.707,0,0,0-5.938,9.832l9.06-9.06A6.667,6.667,0,0,0,212.18,320.937Z" transform="translate(-205.469 -320.937)"/></g><g transform="translate(131.012 46.215)"><path class="a" d="M241.56,347.969l-9.06,9.06a6.707,6.707,0,0,0,9.06-9.06Z" transform="translate(-232.5 -347.969)"/></g><g transform="translate(115.469)"><path class="a" d="M134.133,0a18.685,18.685,0,0,0-18.664,18.664V24.03h11.953V18.8a6.807,6.807,0,0,1,6.606-6.842,6.721,6.721,0,0,1,6.816,6.71v5.29a6.719,6.719,0,0,1-6.711,6.711H115.469V68H152.8V18.664A18.686,18.686,0,0,0,134.133,0Zm0,60.031a10.7,10.7,0,1,1,10.7-10.7A10.708,10.708,0,0,1,134.133,60.031Z" transform="translate(-115.469)"/></g></g></svg>