<svg xmlns="http://www.w3.org/2000/svg" width="16.679" height="16.679" viewBox="0 0 16.679 16.679"><defs><style>.a{fill:#fff;}.b{fill:#00acff;}</style></defs><g transform="translate(0 0)"><circle class="a" cx="8.34" cy="8.34" r="8.34"/></g><path class="b" d="M198.763,383.446a.3.3,0,0,0-.208-.163L197.4,383a.33.33,0,0,0-.394.181.264.264,0,0,0,.215.332l.121.03q-1.408.34-2.476.7a1.342,1.342,0,0,0-.759-.34,6.025,6.025,0,0,0-1.656.02,9,9,0,0,0-3.734,1.425,12.749,12.749,0,0,0-1.631,1.194.239.239,0,0,0,.014.378.351.351,0,0,0,.217.072.347.347,0,0,0,.232-.085,10.679,10.679,0,0,1,4.983-2.455h0a3.912,3.912,0,0,1,1.668.031,8.968,8.968,0,0,0-1.43.687c-.886.547-.989.975-.992,1.134a.283.283,0,0,0,0,.036l0,.02.006.02a.651.651,0,0,0,.484.456.944.944,0,0,0,.233.027,3.614,3.614,0,0,0,1.688-.723l.017-.014.027-.022a4,4,0,0,0,.52-.6,1.456,1.456,0,0,0,.3-.756c.693-.239,1.568-.492,2.672-.752l-.1.128a.244.244,0,0,0,.1.37.361.361,0,0,0,.171.042.336.336,0,0,0,.268-.123l.561-.736A.232.232,0,0,0,198.763,383.446Zm-4.99,2.3,0,0a4.23,4.23,0,0,1-.674.4,1.219,1.219,0,0,1-.635.174c-.007,0-.022-.006-.037-.035.036-.114.282-.613,1.921-1.271A2.86,2.86,0,0,1,193.773,385.748Z" transform="translate(-184.435 -376.395)"/></svg>