<svg xmlns="http://www.w3.org/2000/svg" xmlns:xlink="http://www.w3.org/1999/xlink" width="82" height="82" viewBox="0 0 82 82"><defs><style>.a{fill:#fff;}.b{fill:#333;stroke:#333;stroke-miterlimit:10;stroke-width:0.5px;}.c{filter:url(#a);}</style><filter id="a" x="0" y="0" width="82" height="82" filterUnits="userSpaceOnUse"><feOffset dy="3" input="SourceAlpha"/><feGaussianBlur stdDeviation="3" result="b"/><feFlood flood-opacity="0.161"/><feComposite operator="in" in2="b"/><feComposite in="SourceGraphic"/></filter></defs><g transform="translate(-913 -3764)"><g class="c" transform="matrix(1, 0, 0, 1, 913, 3764)"><rect class="a" width="64" height="64" rx="5" transform="translate(9 6)"/></g><g transform="translate(56.836 -122.756)"><path class="b" d="M37.607,4.395V19.286a4.95,4.95,0,0,1-.2,1.68,3.465,3.465,0,0,1-3.237,2.288c-1.639.009-3.274,0-4.913,0h-.166l.46.464V13.449a.47.47,0,0,0-.46-.464H11.851c-.792,0-1.593-.028-2.385,0H9.434a.47.47,0,0,0-.46.464V23.718l.46-.464H4.669a4.152,4.152,0,0,1-1.593-.246,3.514,3.514,0,0,1-2.155-3.3V9.671c0-1.754-.009-3.508,0-5.262A3.5,3.5,0,0,1,3.849.966,7.869,7.869,0,0,1,5,.929H33.988a3.583,3.583,0,0,1,2.7,1.1,3.526,3.526,0,0,1,.921,2.367.461.461,0,0,0,.921,0A4.422,4.422,0,0,0,34.863.061,8.576,8.576,0,0,0,33.528,0H4.438A4.427,4.427,0,0,0,.714,1.987,4.494,4.494,0,0,0,0,4.4V19.755a4.512,4.512,0,0,0,.585,2.232,4.441,4.441,0,0,0,2.3,1.935,4.941,4.941,0,0,0,1.75.255H9.425a.47.47,0,0,0,.46-.464V13.444l-.46.464H28.279c.253,0,.516.023.769,0h.032l-.46-.464V23.713a.47.47,0,0,0,.46.464h4.954A4.418,4.418,0,0,0,37.5,22.6a4.581,4.581,0,0,0,1.018-2.965V8.506c0-1.35.032-2.705,0-4.051v-.06A.456.456,0,0,0,37.607,4.395Z" transform="translate(877.898 3912.289)"/><path class="b" d="M19.487.447V5.6l.456-.435H1.251c-.251,0-.511-.022-.762,0H.456L.913,5.6V.447L.456.882h17.09c.785,0,1.579.026,2.365,0h.032a.435.435,0,1,0,0-.871H2.853c-.785,0-1.579-.026-2.365,0H.456A.454.454,0,0,0,0,.447V5.6a.454.454,0,0,0,.456.435h17.09c.785,0,1.579.026,2.365,0h.032A.454.454,0,0,0,20.4,5.6V.447A.458.458,0,0,0,19.487.447Z" transform="translate(886.966 3907)"/><path class="b" d="M19.476.477V16.236c0,.209-.018.428,0,.641V16.9l.456-.465H1.261c-.251,0-.511-.023-.761,0H.468l.456.465V1.147c0-.209.018-.428,0-.641V.477L.468.942h17.07c.784,0,1.578.028,2.362,0h.032a.465.465,0,0,0,0-.93H2.862C2.078.012,1.284-.015.5.012H.468A.468.468,0,0,0,.012.477v14.4c0,.665-.027,1.334,0,1.994V16.9a.468.468,0,0,0,.456.465h17.07c.784,0,1.578.028,2.362,0h.032a.468.468,0,0,0,.456-.465V2.5c0-.665.027-1.334,0-1.994V.477A.456.456,0,0,0,19.476.477Z" transform="translate(886.966 3925.134)"/><path class="b" d="M.442.744H22.181c1,0,2.019.026,3.024,0h.041c.589,0,.589-.733,0-.733H3.507c-1,0-2.019-.026-3.024,0H.442c-.589,0-.589.733,0,.733Z" transform="translate(884.697 3925.134)"/><path class="b" d="M.428.756H3.349a.381.381,0,1,0,0-.756H.428a.381.381,0,1,0,0,.756Z" transform="translate(906.608 3919.089)"/><path class="b" d="M.435.944H7.861a.474.474,0,0,0,0-.944H.435a.474.474,0,0,0,0,.944Z" transform="translate(893.024 3931.211)"/><path class="b" d="M.435.944h5.2a.474.474,0,0,0,0-.944H.435a.474.474,0,0,0,0,.944Z" transform="translate(893.024 3936.263)"/></g></g></svg>