<svg xmlns="http://www.w3.org/2000/svg" width="5" height="5" viewBox="0 0 5 5"><defs><style>.a{fill:#9c9ca0;}.b{fill:#fff;fill-rule:evenodd;}</style></defs><ellipse class="a" cx="2.5" cy="2.5" rx="2.5" ry="2.5" transform="translate(0 0)"/><path class="b" d="M2.769.582,2.208.059a.227.227,0,0,0-.306,0A.2.2,0,0,0,1.839.2a.193.193,0,0,0,.035.11l-.749.6A.626.626,0,0,0,.877.861a.612.612,0,0,0-.418.162.185.185,0,0,0,0,.274L.8,1.612,0,2.645,1.106,1.9l.337.315a.218.218,0,0,0,.293,0,.535.535,0,0,0,.173-.39.521.521,0,0,0-.055-.232L2.5.895a.227.227,0,0,0,.117.033A.224.224,0,0,0,2.769.868a.193.193,0,0,0,0-.285Z" transform="translate(1.108 1.042)"/></svg>