<svg xmlns="http://www.w3.org/2000/svg" width="109.284" height="36.714" viewBox="0 0 109.284 36.714"><defs><style>.a,.b{fill:#fff;}.b{stroke:#fff;stroke-width:0.2px;}</style></defs><g transform="translate(0 0.001)"><path d="M125.779,49.555a3.444,3.444,0,0,1-3.144,3.68H19.646a3.447,3.447,0,0,1-3.151-3.68V20.206a3.452,3.452,0,0,1,3.151-3.685H122.631a3.447,3.447,0,0,1,3.147,3.684h0V49.555Z" transform="translate(-16.495 -16.522)"/><g transform="translate(9.753 6.883)"><path class="a" d="M250.625,125.822a4.529,4.529,0,0,1,2.158-3.8,4.64,4.64,0,0,0-3.654-1.975c-1.537-.162-3.028.92-3.811.92-.8,0-2-.9-3.3-.877a4.865,4.865,0,0,0-4.095,2.5c-1.771,3.065-.45,7.569,1.246,10.046.849,1.214,1.84,2.568,3.138,2.52,1.27-.052,1.744-.809,3.277-.809s1.964.809,3.287.778c1.363-.021,2.221-1.219,3.04-2.443a10.014,10.014,0,0,0,1.39-2.83,4.382,4.382,0,0,1-2.673-4.026Zm-2.5-7.4a4.457,4.457,0,0,0,1.021-3.194,4.542,4.542,0,0,0-2.937,1.519,4.241,4.241,0,0,0-1.047,3.077,3.752,3.752,0,0,0,2.963-1.4Z" transform="translate(-237.078 -113.502)"/><g transform="translate(24.904 0)"><path class="a" d="M794.568,343.372h-1.656l-.907-2.85h-3.154l-.864,2.85h-1.612l3.125-9.7h1.929l3.139,9.7Zm-2.837-4.046-.82-2.533q-.13-.388-.489-1.828h-.029q-.145.619-.461,1.828l-.806,2.533Zm10.857.462a3.96,3.96,0,0,1-.97,2.821,2.844,2.844,0,0,1-2.157.922,2.159,2.159,0,0,1-2-.992v3.671h-1.555v-7.533q0-1.121-.057-2.3h1.367l.087,1.109h.029a2.766,2.766,0,0,1,4.427-.275,3.868,3.868,0,0,1,.827,2.578Zm-1.584.057a2.884,2.884,0,0,0-.461-1.685,1.593,1.593,0,0,0-1.354-.69,1.617,1.617,0,0,0-1.043.381,1.767,1.767,0,0,0-.612,1,2.047,2.047,0,0,0-.072.473v1.167a1.872,1.872,0,0,0,.468,1.289,1.554,1.554,0,0,0,1.216.526,1.594,1.594,0,0,0,1.367-.677A2.977,2.977,0,0,0,801,339.845Zm9.633-.057a3.961,3.961,0,0,1-.97,2.821,2.846,2.846,0,0,1-2.158.922,2.159,2.159,0,0,1-2-.992v3.671h-1.555v-7.533q0-1.121-.058-2.3h1.367l.087,1.109h.029a2.767,2.767,0,0,1,4.428-.275,3.872,3.872,0,0,1,.827,2.578Zm-1.585.057a2.882,2.882,0,0,0-.462-1.685,1.59,1.59,0,0,0-1.352-.69,1.623,1.623,0,0,0-1.045.381,1.766,1.766,0,0,0-.611,1,2.077,2.077,0,0,0-.073.473v1.167a1.878,1.878,0,0,0,.467,1.289,1.558,1.558,0,0,0,1.218.526,1.592,1.592,0,0,0,1.367-.677A2.977,2.977,0,0,0,809.052,339.845Zm10.584.806a2.592,2.592,0,0,1-.863,2.016,3.824,3.824,0,0,1-2.644.849,4.614,4.614,0,0,1-2.513-.6l.359-1.3a4.326,4.326,0,0,0,2.246.605,2.12,2.12,0,0,0,1.367-.4,1.293,1.293,0,0,0,.491-1.057,1.354,1.354,0,0,0-.4-.994,3.743,3.743,0,0,0-1.339-.748q-2.549-.951-2.549-2.779a2.454,2.454,0,0,1,.9-1.958,3.559,3.559,0,0,1,2.383-.763,4.709,4.709,0,0,1,2.2.461l-.39,1.267a3.853,3.853,0,0,0-1.865-.446,1.9,1.9,0,0,0-1.286.4,1.153,1.153,0,0,0-.39.879,1.188,1.188,0,0,0,.447.95,5.036,5.036,0,0,0,1.41.748,4.782,4.782,0,0,1,1.843,1.18,2.458,2.458,0,0,1,.593,1.683Zm5.154-3.108h-1.714v3.4q0,1.3.907,1.295a2.732,2.732,0,0,0,.691-.072l.043,1.18a3.521,3.521,0,0,1-1.209.172,1.863,1.863,0,0,1-1.44-.562,2.756,2.756,0,0,1-.519-1.886v-3.526h-1.021v-1.167h1.021v-1.281l1.527-.461v1.742h1.714v1.17Zm7.717,2.274a3.837,3.837,0,0,1-.922,2.649,3.286,3.286,0,0,1-2.562,1.065,3.133,3.133,0,0,1-2.455-1.021,3.72,3.72,0,0,1-.914-2.577,3.806,3.806,0,0,1,.943-2.662,3.269,3.269,0,0,1,2.542-1.037,3.2,3.2,0,0,1,2.476,1.022,3.672,3.672,0,0,1,.893,2.561Zm-1.612.036a3.133,3.133,0,0,0-.416-1.651,1.539,1.539,0,0,0-1.4-.833,1.561,1.561,0,0,0-1.426.833,3.184,3.184,0,0,0-.417,1.68,3.123,3.123,0,0,0,.417,1.651,1.595,1.595,0,0,0,2.81-.014,3.144,3.144,0,0,0,.43-1.667Zm6.667-2.109a2.727,2.727,0,0,0-.49-.043,1.467,1.467,0,0,0-1.268.62,2.334,2.334,0,0,0-.388,1.382v3.671h-1.555v-4.793q0-1.1-.045-2.2h1.354l.057,1.338h.043a2.4,2.4,0,0,1,.777-1.109,1.88,1.88,0,0,1,1.124-.375,2.5,2.5,0,0,1,.389.028v1.483Zm6.953,1.8a3.638,3.638,0,0,1-.057.7h-4.664a2.028,2.028,0,0,0,.677,1.585,2.314,2.314,0,0,0,1.526.489,5.157,5.157,0,0,0,1.887-.33l.244,1.078a5.838,5.838,0,0,1-2.346.432,3.4,3.4,0,0,1-2.557-.956,3.536,3.536,0,0,1-.928-2.569,4.007,4.007,0,0,1,.865-2.633,2.981,2.981,0,0,1,2.447-1.122,2.609,2.609,0,0,1,2.291,1.122,3.777,3.777,0,0,1,.617,2.2Zm-1.483-.4a2.1,2.1,0,0,0-.3-1.195,1.358,1.358,0,0,0-1.238-.649,1.474,1.474,0,0,0-1.238.633,2.321,2.321,0,0,0-.46,1.209Z" transform="translate(-786.375 -323.341)"/><path class="b" d="M810.78,127.216a11.318,11.318,0,0,1-1.275-.065V121.8a9.653,9.653,0,0,1,1.5-.113c2.033,0,2.969,1,2.969,2.631C813.975,126.2,812.87,127.216,810.78,127.216Zm.3-4.841a3.557,3.557,0,0,0-.7.057V126.5a4.605,4.605,0,0,0,.589.024,1.927,1.927,0,0,0,2.091-2.178A1.774,1.774,0,0,0,811.077,122.375Zm5.816,4.882a1.866,1.866,0,0,1-1.889-2.017,1.91,1.91,0,0,1,1.953-2.073,1.852,1.852,0,0,1,1.889,2.009,1.921,1.921,0,0,1-1.953,2.081Zm.033-3.454c-.63,0-1.033.589-1.033,1.412,0,.807.412,1.4,1.024,1.4s1.025-.629,1.025-1.413-.4-1.4-1.016-1.4Zm8.455-.556-1.227,3.921h-.8l-.508-1.7a12.866,12.866,0,0,1-.315-1.266h-.016a8.491,8.491,0,0,1-.314,1.266l-.541,1.7h-.807l-1.155-3.921h.9l.444,1.864q.157.666.266,1.259h.017c.064-.33.169-.742.323-1.25l.557-1.871h.71l.533,1.832c.129.444.234.88.315,1.291h.023a11.175,11.175,0,0,1,.266-1.291l.476-1.832Zm4.516,3.921h-.872v-2.251c0-.693-.266-1.041-.791-1.041a.9.9,0,0,0-.871.96v2.332h-.872v-2.8c0-.347-.008-.718-.033-1.122h.767l.041.605h.024a1.409,1.409,0,0,1,1.243-.685c.823,0,1.364.629,1.364,1.654v2.348Zm2.4,0h-.872v-5.72h.872Zm3.177.089a1.867,1.867,0,0,1-1.888-2.017,1.91,1.91,0,0,1,1.953-2.073,1.851,1.851,0,0,1,1.889,2.009,1.921,1.921,0,0,1-1.953,2.081Zm.033-3.454c-.63,0-1.033.589-1.033,1.412,0,.807.412,1.4,1.024,1.4s1.025-.629,1.025-1.413-.4-1.4-1.015-1.4Zm5.356,3.365-.063-.451h-.023a1.339,1.339,0,0,1-1.147.54,1.14,1.14,0,0,1-1.2-1.154c0-.968.839-1.468,2.292-1.468v-.072c0-.516-.274-.775-.814-.775a1.835,1.835,0,0,0-1.024.291l-.177-.573a2.507,2.507,0,0,1,1.346-.339c1.025,0,1.542.54,1.542,1.622v1.444a5.9,5.9,0,0,0,.057.936Zm-.12-1.953c-.968,0-1.453.234-1.453.791a.555.555,0,0,0,.6.613.834.834,0,0,0,.856-.8Zm5.081,1.953-.041-.629h-.024a1.315,1.315,0,0,1-1.259.718,1.787,1.787,0,0,1-1.646-2,1.86,1.86,0,0,1,1.717-2.09,1.178,1.178,0,0,1,1.106.533h.017v-2.251h.872v4.663c0,.379.009.734.032,1.057Zm-.129-2.307a.948.948,0,0,0-.918-1.017c-.646,0-1.041.573-1.041,1.379,0,.791.41,1.332,1.024,1.332a.978.978,0,0,0,.936-1.041v-.654Zm6.4,2.4a1.866,1.866,0,0,1-1.888-2.017,1.91,1.91,0,0,1,1.952-2.073,1.851,1.851,0,0,1,1.889,2.009,1.92,1.92,0,0,1-1.953,2.081Zm.032-3.454c-.629,0-1.032.589-1.032,1.412,0,.807.412,1.4,1.024,1.4s1.025-.629,1.025-1.413-.4-1.4-1.016-1.4Zm6.608,3.365h-.872v-2.251c0-.693-.266-1.041-.791-1.041a.9.9,0,0,0-.871.96v2.332h-.872v-2.8c0-.347-.008-.718-.032-1.122h.767l.041.605h.024a1.408,1.408,0,0,1,1.242-.686c.823,0,1.365.629,1.365,1.654Zm5.864-3.267h-.959v1.9c0,.485.168.727.507.727a1.721,1.721,0,0,0,.387-.041l.024.662a1.932,1.932,0,0,1-.676.1c-.687,0-1.1-.379-1.1-1.372V123.9h-.572v-.654h.572v-.718l.856-.259v.976h.959v.654Zm4.614,3.267h-.871v-2.235c0-.7-.265-1.057-.791-1.057a.855.855,0,0,0-.872.928v2.364h-.87v-5.72h.87V123.8h.017a1.323,1.323,0,0,1,1.179-.638c.83,0,1.337.645,1.337,1.67v2.332Zm4.727-1.751h-2.615a1.125,1.125,0,0,0,1.236,1.161,2.946,2.946,0,0,0,1.057-.185l.136.605a3.274,3.274,0,0,1-1.315.242,1.82,1.82,0,0,1-1.953-1.976,1.915,1.915,0,0,1,1.854-2.106,1.647,1.647,0,0,1,1.631,1.864,1.674,1.674,0,0,1-.03.395Zm-.8-.621c0-.605-.305-1.033-.862-1.033a1.034,1.034,0,0,0-.953,1.033Z" transform="translate(-809.505 -121.448)"/></g></g></g></svg>