<svg xmlns="http://www.w3.org/2000/svg" width="14" height="14" viewBox="0 0 14 14"><defs><style>.a{fill:#7fd5ff;}.b{fill:#fff;}</style></defs><circle class="a" cx="7" cy="7" r="7" transform="translate(0 0)"/><g transform="translate(2.181 4.686)"><path class="b" d="M6.195,9.378a.939.939,0,1,0-.939-.939A.935.935,0,0,0,6.195,9.378Zm-2.5,0a.939.939,0,1,0-.939-.939A.935.935,0,0,0,3.691,9.378Zm0,.626C2.962,10,1.5,10.37,1.5,11.1v.782H5.882V11.1C5.882,10.37,4.42,10,3.691,10Zm2.5,0c-.091,0-.194.006-.3.016a1.321,1.321,0,0,1,.617,1.08v.782H8.386V11.1C8.386,10.37,6.924,10,6.195,10Z" transform="translate(0.888 -7.5)"/><g transform="translate(0 0)"><path class="b" d="M21.61,9.378a.94.94,0,1,1,.9-.939A.918.918,0,0,1,21.61,9.378Zm0,.626c.087,0,.187.006.292.016a1.332,1.332,0,0,0-.594,1.08v.782H19.5V11.1C19.5,10.37,20.907,10,21.61,10Z" transform="translate(-19.5 -7.5)"/></g></g></svg>