<svg xmlns="http://www.w3.org/2000/svg" xmlns:xlink="http://www.w3.org/1999/xlink" width="82" height="82" viewBox="0 0 82 82"><defs><style>.a{fill:#fff;}.b{fill:#333;fill-rule:evenodd;}.c{filter:url(#a);}</style><filter id="a" x="0" y="0" width="82" height="82" filterUnits="userSpaceOnUse"><feOffset dy="3" input="SourceAlpha"/><feGaussianBlur stdDeviation="3" result="b"/><feFlood flood-opacity="0.161"/><feComposite operator="in" in2="b"/><feComposite in="SourceGraphic"/></filter></defs><g transform="translate(-959 -2134)"><g class="c" transform="matrix(1, 0, 0, 1, 959, 2134)"><rect class="a" width="64" height="64" rx="3" transform="translate(9 6)"/></g><g transform="translate(982 2154)"><path class="b" d="M259.713,4.185a18.045,18.045,0,1,0,18.045,18.045A18.054,18.054,0,0,0,259.713,4.185Zm0,1.244a16.8,16.8,0,1,1-16.8,16.8A16.809,16.809,0,0,1,259.713,5.43Z" transform="translate(-241.668 -4.185)"/><path class="b" d="M239.645,32.559a.623.623,0,0,0,.918.038L261.515,11.49a.622.622,0,0,0-.045-.918,15.554,15.554,0,0,0-21.825,21.987Zm20.5-21.452a14.309,14.309,0,0,0-19.969,20.117Z" transform="translate(-233.46 -4.443)"/><path class="b" d="M4.563.184a.623.623,0,0,0-.918.038A15.554,15.554,0,0,0,25.471,22.209a.623.623,0,0,0,.045-.918ZM24.141,21.673,4.172,1.556A14.309,14.309,0,0,0,24.141,21.673Z" transform="translate(7.816 33.541) rotate(-90)"/><path class="b" d="M154.008,324.879a2.491,2.491,0,0,1-3.134,2.951.622.622,0,1,0-.355,1.193,3.736,3.736,0,0,0,4.7-4.426.622.622,0,1,0-1.213.282Z" transform="translate(-133.537 -307.654)"/><path class="b" d="M147.947,324.968a2.49,2.49,0,0,1,3.241-3.284.622.622,0,1,0,.478-1.149,3.735,3.735,0,0,0-4.861,4.926.622.622,0,0,0,1.143-.493Z" transform="translate(-132.187 -306.195)"/><path class="b" d="M102.577,255.281a23.1,23.1,0,0,0,5.76,3.643.622.622,0,1,1-.486,1.146,24.982,24.982,0,0,1-6.639-4.32.623.623,0,0,1,0-.935q7.8-6.86,15.614-5.4.273.05.544.111a.622.622,0,1,1-.271,1.215c-.167-.037-.334-.072-.5-.1C111.921,249.764,107.254,251.349,102.577,255.281Z" transform="translate(-96.021 -237.333)"/><path class="b" d="M116.487,267.406a14.93,14.93,0,0,0,7.168-.149.622.622,0,0,0-.319-1.2,13.7,13.7,0,0,1-6.578.136.622.622,0,0,0-.27,1.215Z" transform="translate(-101.687 -243.708)"/><path class="b" d="M136.645,256.134a22.993,22.993,0,0,0-5.436-3.529.623.623,0,0,1,.509-1.136,24.892,24.892,0,0,1,6.29,4.2.623.623,0,0,1,0,.93,24.316,24.316,0,0,1-6.812,4.417.622.622,0,0,1-.473-1.151A22.428,22.428,0,0,0,136.645,256.134Z" transform="translate(-107.102 -238.187)"/></g></g></svg>