<svg xmlns="http://www.w3.org/2000/svg" xmlns:xlink="http://www.w3.org/1999/xlink" width="82" height="82" viewBox="0 0 82 82"><defs><style>.a{fill:#fff;}.b{fill:#333;stroke:#333;stroke-width:0.5px;}.c{filter:url(#a);}</style><filter id="a" x="0" y="0" width="82" height="82" filterUnits="userSpaceOnUse"><feOffset dy="3" input="SourceAlpha"/><feGaussianBlur stdDeviation="3" result="b"/><feFlood flood-opacity="0.161"/><feComposite operator="in" in2="b"/><feComposite in="SourceGraphic"/></filter></defs><g transform="translate(-681 -3755)"><g class="c" transform="matrix(1, 0, 0, 1, 681, 3755)"><rect class="a" width="64" height="64" rx="3" transform="translate(9 6)"/></g><g transform="translate(689.061 3763)"><path class="b" d="M43.042,13.991c0-3.057-6.269-5.491-14.247-5.491S14.6,10.935,14.6,13.991V42.226c0,3.057,6.269,5.44,14.195,5.44a43.157,43.157,0,0,0,4.559-.259,15.438,15.438,0,0,0,4.87,3.367l1.606.725,1.917-.829c6.113-2.539,9.532-7.2,9.532-13.107v-7.2l-8.237-4.4ZM28.795,9.536c6.269,0,13.211,1.865,13.211,4.455s-6.942,4.455-13.211,4.455-13.159-1.813-13.159-4.455S22.578,9.536,28.795,9.536ZM15.636,25.493c2.072,1.969,7.149,3.367,13.159,3.367l3.057-.1-3,1.606v6.579h0c0,.1.052.155.052.259h-.1c-6.217,0-13.159-1.813-13.159-4.4ZM28.795,46.63c-6.217,0-13.159-1.813-13.159-4.4V34.869c2.072,1.969,7.149,3.367,13.159,3.367h.155a15.9,15.9,0,0,0,3.523,8.237C31.282,46.578,30.038,46.63,28.795,46.63Zm21.448-9.066c0,5.44-3.16,9.791-8.911,12.175l-1.451.622-1.243-.57a14.4,14.4,0,0,1-8.755-13.262V30.984l10.05-5.491,10.309,5.491Zm-9.17-12.641-1.14-.622-5.7,3.108a36.212,36.212,0,0,1-5.44.414c-6.217,0-13.159-1.813-13.159-4.455v-7.3c2.072,2.02,7.149,3.419,13.159,3.419s11.087-1.4,13.211-3.419v7.3a2.124,2.124,0,0,1-.933,1.554Z"/><path class="b" d="M55.125,60.894l-.725.777,3.678,3.575,6.424-6.32-.725-.725-5.7,5.6Z" transform="translate(-19.181 -23.952)"/></g></g></svg>