<svg xmlns="http://www.w3.org/2000/svg" width="6.182" height="6.182" viewBox="0 0 6.182 6.182"><defs><style>.a{fill:#9c9ca0;}.b{fill:#fff;}</style></defs><ellipse class="a" cx="3.091" cy="3.091" rx="3.091" ry="3.091" transform="translate(0 0)"/><g transform="translate(1.293 1.407)"><path class="b" d="M185.569.118A.117.117,0,0,0,185.5.013a.114.114,0,0,0-.124.014l-1.038.827,1.228,1.228Z" transform="translate(-182.991 0)"/><path class="b" d="M3.292,3.148.245.1A.117.117,0,0,0,.079.267L.817,1H.748a.238.238,0,0,0-.234.234v.938a.235.235,0,0,0,.234.234h.544l1.141.912a.12.12,0,0,0,.073.026.137.137,0,0,0,.052-.012.117.117,0,0,0,.066-.105v-.42l.5.5a.117.117,0,1,0,.166-.166Z" transform="translate(-0.045 -0.067)"/></g></svg>