<svg xmlns="http://www.w3.org/2000/svg" xmlns:xlink="http://www.w3.org/1999/xlink" width="82" height="82" viewBox="0 0 82 82"><defs><style>.a{fill:#fff;}.b{fill:#333;}.c{filter:url(#a);}</style><filter id="a" x="0" y="0" width="82" height="82" filterUnits="userSpaceOnUse"><feOffset dy="3" input="SourceAlpha"/><feGaussianBlur stdDeviation="3" result="b"/><feFlood flood-opacity="0.161"/><feComposite operator="in" in2="b"/><feComposite in="SourceGraphic"/></filter></defs><g transform="translate(-1101 -3764)"><g class="c" transform="matrix(1, 0, 0, 1, 1101, 3764)"><rect class="a" width="64" height="64" rx="5" transform="translate(9 6)"/></g><g transform="translate(1079.35 3784)"><g transform="translate(48.65)"><path class="b" d="M68.215,85.4H51.493a2.845,2.845,0,0,0-2.843,2.843v23.993a2.845,2.845,0,0,0,2.843,2.843H68.215a2.845,2.845,0,0,0,2.843-2.843V88.243A2.855,2.855,0,0,0,68.215,85.4Zm.847,26.829a.855.855,0,0,1-.855.855H51.486a.855.855,0,0,1-.855-.855V88.243a.855.855,0,0,1,.855-.855H68.208a.855.855,0,0,1,.855.855Z" transform="translate(-48.65 -79.109)"/><path class="b" d="M155.015,0H138.293a2.845,2.845,0,0,0-2.843,2.843.994.994,0,0,0,1.989,0,.855.855,0,0,1,.854-.855h16.722a.855.855,0,0,1,.855.855V26.836a.855.855,0,0,1-.855.855.994.994,0,0,0,0,1.989,2.845,2.845,0,0,0,2.843-2.843V2.843A2.845,2.845,0,0,0,155.015,0Z" transform="translate(-129.056)"/></g></g></g></svg>