<svg xmlns="http://www.w3.org/2000/svg" width="14.939" height="14.939" viewBox="0 0 14.939 14.939"><defs><style>.a{fill:#fff;}.b{fill:#00acff;}</style></defs><g transform="translate(0 0)"><circle class="a" cx="7.47" cy="7.47" r="7.47"/></g><path class="b" d="M197.76,383.407a.277.277,0,0,0-.19-.149L196.513,383a.3.3,0,0,0-.361.166.242.242,0,0,0,.2.3l.11.027q-1.288.311-2.265.645a1.227,1.227,0,0,0-.695-.311,5.511,5.511,0,0,0-1.514.018,8.234,8.234,0,0,0-3.416,1.3,11.66,11.66,0,0,0-1.492,1.093.218.218,0,0,0,.013.346.33.33,0,0,0,.411-.011,9.769,9.769,0,0,1,4.559-2.246h0a3.577,3.577,0,0,1,1.526.029,8.2,8.2,0,0,0-1.308.629c-.811.5-.9.892-.908,1.038a.257.257,0,0,0,0,.033l0,.019.005.018a.6.6,0,0,0,.443.417.863.863,0,0,0,.213.025,3.305,3.305,0,0,0,1.544-.661l.015-.013.024-.02a3.658,3.658,0,0,0,.476-.547,1.332,1.332,0,0,0,.276-.692c.634-.218,1.434-.45,2.444-.688l-.089.117a.223.223,0,0,0,.088.338.33.33,0,0,0,.157.039.307.307,0,0,0,.245-.113l.513-.673A.212.212,0,0,0,197.76,383.407Zm-4.565,2.106,0,0a3.867,3.867,0,0,1-.617.37,1.114,1.114,0,0,1-.581.159c-.007,0-.02-.005-.034-.032.033-.1.258-.561,1.757-1.163A2.619,2.619,0,0,1,193.2,385.513Z" transform="translate(-184.742 -377.163)"/></svg>