<svg xmlns="http://www.w3.org/2000/svg" xmlns:xlink="http://www.w3.org/1999/xlink" width="54" height="54" viewBox="0 0 54 54"><defs><style>.a{fill:#fff;}.b{fill:#9c9ca0;}.c{filter:url(#a);}</style><filter id="a" x="0" y="0" width="54" height="54" filterUnits="userSpaceOnUse"><feOffset dy="3" input="SourceAlpha"/><feGaussianBlur stdDeviation="3" result="b"/><feFlood flood-opacity="0.161"/><feComposite operator="in" in2="b"/><feComposite in="SourceGraphic"/></filter></defs><g transform="translate(9 6)"><g class="c" transform="matrix(1, 0, 0, 1, -9, -6)"><circle class="a" cx="18" cy="18" r="18" transform="translate(9 6)"/></g><g transform="translate(11 9.701)"><path class="b" d="M5.8,7.26.3,12.748a1.033,1.033,0,0,0,0,1.465,1.046,1.046,0,0,0,1.469,0L8,7.994a1.035,1.035,0,0,0,.03-1.43L1.778.3A1.037,1.037,0,0,0,.309,1.767Z" transform="translate(0 8.298) rotate(-90)"/><path class="b" d="M5.8,7.26.3,12.748a1.033,1.033,0,0,0,0,1.465,1.046,1.046,0,0,0,1.469,0L8,7.994a1.035,1.035,0,0,0,.03-1.43L1.778.3A1.037,1.037,0,0,0,.309,1.767Z" transform="translate(0 14.298) rotate(-90)"/></g></g></svg>