<svg xmlns="http://www.w3.org/2000/svg" width="12.363" height="12.363" viewBox="0 0 12.363 12.363"><defs><style>.a{fill:#fff;}.b{fill:#00acff;}</style></defs><g transform="translate(0 0)"><circle class="a" cx="6.182" cy="6.182" r="6.182" transform="translate(0 0)"/></g><path class="b" d="M194.915,383.354a.214.214,0,0,0-.14-.13L194,383a.214.214,0,1,0-.12.41l.081.024a16.709,16.709,0,0,0-1.666.563.848.848,0,0,0-.511-.272,3.421,3.421,0,0,0-1.114.016,5.51,5.51,0,0,0-2.513,1.139,8.875,8.875,0,0,0-1.1.954.214.214,0,1,0,.312.292,6.9,6.9,0,0,1,3.353-1.962h0a2.229,2.229,0,0,1,1.122.025,5.69,5.69,0,0,0-.962.549c-.6.437-.666.779-.668.907a.268.268,0,0,0,0,.029v.016l0,.016a.48.48,0,0,0,.326.365.538.538,0,0,0,.157.022,2.276,2.276,0,0,0,1.136-.577l.011-.011.018-.017a3.084,3.084,0,0,0,.35-.478,1.3,1.3,0,0,0,.2-.6,16.608,16.608,0,0,1,1.8-.6l-.066.1a.214.214,0,1,0,.36.231l.378-.588A.214.214,0,0,0,194.915,383.354Zm-3.358,1.84h0a2.8,2.8,0,0,1-.454.323.718.718,0,0,1-.427.139s-.015,0-.025-.028c.024-.091.19-.49,1.292-1.016A2.275,2.275,0,0,1,191.558,385.194Z" transform="translate(-184.814 -378.313)"/></svg>