<svg xmlns="http://www.w3.org/2000/svg" width="124" height="124" viewBox="0 0 124 124"><defs><style>.a{fill:#48ad2b;}.b{fill:#fff;}</style></defs><g transform="translate(18181 8032)"><rect class="a" width="124" height="124" rx="62" transform="translate(-18181 -8032)"/><g transform="translate(-18155.701 -8007.371)"><path class="b" d="M40.046,0c-.02.02-.06.02-.12.02A36.48,36.48,0,0,0,11.316,59.233L6,71.586A1.983,1.983,0,0,0,7.032,74.2a2.025,2.025,0,0,0,1.136.139l19.505-3.427a35.151,35.151,0,0,0,12.153,2.112A36.511,36.511,0,0,0,40.046,0Zm-.2,69.056A31.982,31.982,0,0,1,28.589,67a1.91,1.91,0,0,0-1.056-.1L11.116,69.773l4.343-10.1a2,2,0,0,0-.319-2.092,31.852,31.852,0,0,1-5.539-9.2,32.53,32.53,0,1,1,62.82-12.034v.12A32.618,32.618,0,0,1,39.846,69.056Z" transform="translate(-3.366)"/><g transform="translate(21.769 34.332)"><path class="b" d="M117.3,146.7h.179a2.723,2.723,0,1,0,0,5.443H117.3a2.723,2.723,0,1,0,0-5.443Z" transform="translate(-114.666 -146.7)"/><path class="b" d="M117.3,146.7h.179a2.723,2.723,0,1,0,0,5.443H117.3a2.723,2.723,0,1,0,0-5.443Z" transform="translate(-102.943 -146.7)"/><path class="b" d="M117.3,146.7h.179a2.723,2.723,0,1,0,0,5.443H117.3a2.723,2.723,0,1,0,0-5.443Z" transform="translate(-91.22 -146.7)"/></g></g></g></svg>