<svg xmlns="http://www.w3.org/2000/svg" width="40.805" height="29.47" viewBox="0 0 40.805 29.47"><g transform="translate(-18 -59)"><path d="M19.237,80.433a.618.618,0,1,1-1.237,0,6.633,6.633,0,0,1,6.595-6.32H27.48a6.541,6.541,0,0,1,6.595,6.32.618.618,0,1,1-1.237,0,5.311,5.311,0,0,0-5.358-5.083H24.595a5.28,5.28,0,0,0-5.221,5.083Zm12.5-7.007a.618.618,0,0,1-1.237,0,6.511,6.511,0,0,1,6.457-6.32h2.885a6.334,6.334,0,0,1,6.457,6.32c.137.824-1.1.824-1.237,0a5.1,5.1,0,0,0-5.221-5.083H36.96A5.1,5.1,0,0,0,31.739,73.426ZM31.6,87.852a.618.618,0,1,1-1.237,0,6.422,6.422,0,0,1,6.457-6.32h2.885a6.513,6.513,0,0,1,6.457,6.32.618.618,0,0,1-1.237,0,5.191,5.191,0,0,0-5.221-5.083H36.822A5.191,5.191,0,0,0,31.6,87.852Zm12.5-7.419a.618.618,0,1,1-1.237,0,6.368,6.368,0,0,1,6.595-6.32h2.885a6.334,6.334,0,0,1,6.457,6.32.618.618,0,1,1-1.237,0,5.1,5.1,0,0,0-5.221-5.083H49.462A5.138,5.138,0,0,0,44.1,80.433Zm-18-14.426a3.916,3.916,0,0,1,0,7.831,3.916,3.916,0,0,1,0-7.831Zm0,1.237a2.641,2.641,0,0,0-2.61,2.748,2.609,2.609,0,0,0,2.61,2.61,2.7,2.7,0,0,0,2.61-2.61A2.731,2.731,0,0,0,26.106,67.243ZM38.471,59a3.873,3.873,0,0,1,3.847,3.984A3.916,3.916,0,1,1,38.471,59Zm0,1.237a2.671,2.671,0,0,0-2.748,2.748,2.731,2.731,0,0,0,2.748,2.61,2.7,2.7,0,0,0,2.61-2.61A2.642,2.642,0,0,0,38.471,60.237ZM38.2,73.563a3.961,3.961,0,0,1,3.984,3.847,3.916,3.916,0,0,1-7.831,0A3.932,3.932,0,0,1,38.2,73.563Zm0,1.237a2.7,2.7,0,0,0-2.61,2.61,2.609,2.609,0,0,0,2.61,2.61,2.641,2.641,0,0,0,2.748-2.61A2.731,2.731,0,0,0,38.2,74.8Zm12.64-8.793a3.916,3.916,0,1,1,0,7.831,3.916,3.916,0,1,1,0-7.831Zm0,1.237a2.731,2.731,0,0,0-2.61,2.748,2.7,2.7,0,0,0,2.61,2.61,2.68,2.68,0,1,0,0-5.358Z"/></g></svg>