<svg xmlns="http://www.w3.org/2000/svg" xmlns:xlink="http://www.w3.org/1999/xlink" width="82" height="82" viewBox="0 0 82 82"><defs><style>.a{fill:#fff;}.b{fill:#333;}.c{filter:url(#a);}</style><filter id="a" x="0" y="0" width="82" height="82" filterUnits="userSpaceOnUse"><feOffset dy="3" input="SourceAlpha"/><feGaussianBlur stdDeviation="3" result="b"/><feFlood flood-opacity="0.161"/><feComposite operator="in" in2="b"/><feComposite in="SourceGraphic"/></filter></defs><g transform="translate(-585 -1989)"><g class="c" transform="matrix(1, 0, 0, 1, 585, 1989)"><rect class="a" width="64" height="64" rx="2" transform="translate(9 6)"/></g><g transform="translate(608.637 2010.334)"><path class="b" d="M20.728,30.365a.73.73,0,0,1-.282-.057C20.1,30.161,12,26.661,12,19.507V13.429a.728.728,0,0,1,.495-.689l8-2.7a.728.728,0,0,1,.465,0l8,2.7a.727.727,0,0,1,.495.689v6.079c0,7.154-8.1,10.654-8.445,10.8a.73.73,0,0,1-.282.057ZM13.455,13.952v5.555c0,5.5,5.9,8.667,7.273,9.328C22.1,28.173,28,25,28,19.507V13.952L20.728,11.5Z" transform="translate(5.455 3.091)"/><path class="b" d="M18.636,21.046a.342.342,0,0,1-.039,0,.722.722,0,0,1-.528-.272L15.16,17.136a.728.728,0,0,1,1.136-.909l2.4,3,4.517-4.515a.727.727,0,0,1,1.028,1.028L19.15,20.832a.724.724,0,0,1-.513.214Z" transform="translate(6.819 5.137)"/><path class="b" d="M26.91,11.182H5.091A5.091,5.091,0,0,1,5.091,1H26.91a5.091,5.091,0,0,1,0,10.182ZM5.091,2.455a3.637,3.637,0,0,0,0,7.273H26.91a3.637,3.637,0,0,0,0-7.273Z" transform="translate(0 -1)"/><path class="b" d="M5.182,7.364A2.182,2.182,0,1,1,7.364,5.182,2.185,2.185,0,0,1,5.182,7.364Zm0-2.909a.727.727,0,1,0,.727.727A.729.729,0,0,0,5.182,4.455Z" transform="translate(1.364 -0.091)"/><path class="b" d="M10.182,7.364a2.182,2.182,0,1,1,2.182-2.182A2.185,2.185,0,0,1,10.182,7.364Zm0-2.909a.727.727,0,1,0,.727.727A.729.729,0,0,0,10.182,4.455Z" transform="translate(3.637 -0.091)"/><path class="b" d="M13.819,17.182H5.091A5.091,5.091,0,0,1,5.091,7H26.91a4.988,4.988,0,0,1,3.1,1.056A.728.728,0,0,1,29.111,9.2a3.542,3.542,0,0,0-2.2-.749H5.091a3.637,3.637,0,0,0,0,7.273h8.728a.727.727,0,0,1,0,1.455Z" transform="translate(0 1.728)"/><path class="b" d="M5.182,13.364a2.182,2.182,0,1,1,2.182-2.182A2.185,2.185,0,0,1,5.182,13.364Zm0-2.909a.727.727,0,1,0,.727.727A.729.729,0,0,0,5.182,10.455Z" transform="translate(1.364 2.637)"/><path class="b" d="M10.182,13.364a2.182,2.182,0,1,1,2.182-2.182A2.185,2.185,0,0,1,10.182,13.364Zm0-2.909a.727.727,0,1,0,.727.727A.729.729,0,0,0,10.182,10.455Z" transform="translate(3.637 2.637)"/><path class="b" d="M13.819,23.182H5.091A5.091,5.091,0,0,1,5.091,13h8.728a.727.727,0,0,1,0,1.455H5.091a3.637,3.637,0,0,0,0,7.273h8.728a.727.727,0,0,1,0,1.455Z" transform="translate(0 4.455)"/><path class="b" d="M5.182,19.364a2.182,2.182,0,1,1,2.182-2.182A2.185,2.185,0,0,1,5.182,19.364Zm0-2.909a.727.727,0,1,0,.727.727A.729.729,0,0,0,5.182,16.455Z" transform="translate(1.364 5.365)"/><path class="b" d="M10.182,19.364a2.182,2.182,0,1,1,2.182-2.182A2.185,2.185,0,0,1,10.182,19.364Zm0-2.909a.727.727,0,1,0,.727.727A.729.729,0,0,0,10.182,16.455Z" transform="translate(3.637 5.365)"/></g></g></svg>