<svg xmlns="http://www.w3.org/2000/svg" xmlns:xlink="http://www.w3.org/1999/xlink" width="82" height="82" viewBox="0 0 82 82"><defs><style>.a{fill:#fff;}.b{fill:#333;}.c{filter:url(#a);}</style><filter id="a" x="0" y="0" width="82" height="82" filterUnits="userSpaceOnUse"><feOffset dy="3" input="SourceAlpha"/><feGaussianBlur stdDeviation="3" result="b"/><feFlood flood-opacity="0.161"/><feComposite operator="in" in2="b"/><feComposite in="SourceGraphic"/></filter></defs><g transform="translate(-71 -2295)"><g class="c" transform="matrix(1, 0, 0, 1, 71, 2295)"><rect class="a" width="64" height="64" rx="3" transform="translate(9 6)"/></g><g transform="translate(16048.504 8292.999)"><path class="b" d="M55.081,44.287a9.047,9.047,0,0,0-9.036-9.037c-.114,0-.229,0-.347.008a10.268,10.268,0,0,0-19.9-.175q-.229-.02-.452-.02A5.444,5.444,0,0,0,20,41.565a5.494,5.494,0,0,0-4.5,5.4v.86a5.5,5.5,0,0,0,5.5,5.5H32.482a.573.573,0,0,0,.574-.574V46.394a.573.573,0,0,0-.574-.574H31.006l4.631-4.631,4.631,4.631H38.792a.573.573,0,0,0-.574.574V52.75a.573.573,0,0,0,.574.574h7.777a.529.529,0,0,0,.2-.039,9.043,9.043,0,0,0,8.313-9Zm-8.548,7.864a.517.517,0,0,0-.132.025H39.366V46.968h2.287a.574.574,0,0,0,.406-.979l-6.016-6.016a.573.573,0,0,0-.811,0l-6.016,6.016a.574.574,0,0,0,.406.979h2.287v5.209H20.994a4.355,4.355,0,0,1-4.35-4.35v-.86a4.346,4.346,0,0,1,4.109-4.338.573.573,0,0,0,.513-.755,4.292,4.292,0,0,1,4.866-5.588.572.572,0,0,0,.666-.448,9.119,9.119,0,0,1,17.882.135.572.572,0,0,0,.618.463c.246-.024.5-.038.748-.038a7.884,7.884,0,0,1,.488,15.754Z" transform="translate(-15972 -6000.432)"/><path class="b" d="M67.264,45.683a.574.574,0,1,0,0,1.147,5.163,5.163,0,0,1,0,10.325.574.574,0,1,0,0,1.147,6.31,6.31,0,0,0,0-12.62Z" transform="translate(-15993.827 -6008.213)"/></g></g></svg>