<svg xmlns="http://www.w3.org/2000/svg" width="333.349" height="124" viewBox="0 0 333.349 124"><defs><style>.a{fill:#00acff;}.b{fill:#fff;}.c{fill:#19c261;}</style></defs><g transform="translate(-173 -4064)"><g transform="translate(173 4064.069)"><g transform="translate(0)"><circle class="a" cx="62" cy="62" r="62" transform="translate(0 -0.069)"/><path class="b" d="M268.425,386.729a2.192,2.192,0,0,0-1.441-1.329l-8-2.325a2.2,2.2,0,0,0-2.729,1.479,2.178,2.178,0,0,0,1.492,2.706l.836.243a172.835,172.835,0,0,0-17.137,5.744,8.744,8.744,0,0,0-5.256-2.774c-2.849-.57-6.6-.516-11.46.164-8.025,1.007-16.721,4.914-25.847,11.612a91.06,91.06,0,0,0-11.29,9.735,2.167,2.167,0,0,0,.1,3.081,2.212,2.212,0,0,0,3.107-.1c.168-.178,17.037-17.824,34.5-20.006l.032,0c6.756-.946,10-.421,11.546.255a58.639,58.639,0,0,0-9.9,5.6c-6.137,4.456-6.848,7.948-6.87,9.246a2.73,2.73,0,0,0,.012.294l.016.165.04.161a4.913,4.913,0,0,0,3.351,3.719,5.594,5.594,0,0,0,1.61.223c5.1,0,11.615-5.824,11.687-5.889.04-.036.077-.076.115-.114a2.2,2.2,0,0,0,.185-.178,31.513,31.513,0,0,0,3.6-4.872,13.166,13.166,0,0,0,2.086-6.164,171.754,171.754,0,0,1,18.494-6.133l-.677,1.046a2.169,2.169,0,0,0,.663,3.013,2.211,2.211,0,0,0,3.039-.658l3.884-6A2.164,2.164,0,0,0,268.425,386.729Zm-34.542,18.764-.018.015a28.846,28.846,0,0,1-4.669,3.3c-2.349,1.316-3.836,1.587-4.395,1.42-.05-.015-.15-.045-.254-.287.247-.927,1.953-4.995,13.295-10.362A23.184,23.184,0,0,1,233.883,405.494Z" transform="translate(-165.799 -337.691)"/></g></g><g transform="translate(382.418 4064)"><circle class="b" cx="61.965" cy="61.965" r="61.965"/><path class="c" d="M61.965,0a61.965,61.965,0,1,0,61.965,61.965A61.972,61.972,0,0,0,61.965,0Zm1.313,98.044h-.015A37.073,37.073,0,0,1,45.54,93.531L25.88,98.687l5.262-19.213a37.089,37.089,0,1,1,32.137,18.57Zm0,0"/><path class="c" d="M164.91,124.469a30.829,30.829,0,0,0-26.126,47.213l.733,1.166L136.4,184.219l11.667-3.06,1.126.668a30.776,30.776,0,0,0,15.689,4.3h.012a30.827,30.827,0,0,0,.013-61.653Zm18.131,44.062c-.772,2.163-4.474,4.139-6.255,4.405a12.718,12.718,0,0,1-5.837-.367,53.515,53.515,0,0,1-5.284-1.952c-9.3-4.013-15.367-13.37-15.83-13.988s-3.784-5.024-3.784-9.584a10.387,10.387,0,0,1,3.243-7.728,3.406,3.406,0,0,1,2.472-1.159c.617,0,1.236.006,1.776.032.569.028,1.333-.217,2.085,1.59.772,1.855,2.626,6.414,2.857,6.878a1.708,1.708,0,0,1,.078,1.623,26.406,26.406,0,0,1-2.317,3.168c-.411.51-.947.963-.407,1.891a27.933,27.933,0,0,0,5.155,6.417,25.332,25.332,0,0,0,7.453,4.6c.926.463,1.467.386,2.007-.232s2.317-2.705,2.934-3.633,1.236-.773,2.085-.463,5.406,2.55,6.332,3.013,1.544.7,1.776,1.083a7.728,7.728,0,0,1-.54,4.405Zm0,0" transform="translate(-101.619 -94.341)"/></g><g transform="translate(0 30.315)"><g transform="translate(308.098 4050.363)"><g transform="translate(0 32.321)"><path class="b" d="M29.573,44.864,17.169,32.5a.627.627,0,0,0-.675-.134.62.62,0,0,0-.382.573v6.817H.62a.62.62,0,0,0-.62.62v9.915a.62.62,0,0,0,.62.62H16.112V57.7a.621.621,0,0,0,.383.573.611.611,0,0,0,.237.047.624.624,0,0,0,.439-.181l12.4-12.4a.621.621,0,0,0,0-.877Z" transform="translate(0 -32.321)"/></g></g><g transform="translate(341.1 4082.685)"><g transform="translate(0.001)"><path class="b" d="M.182,44.864,12.586,32.5a.627.627,0,0,1,.675-.134.62.62,0,0,1,.382.573v6.817H29.136a.62.62,0,0,1,.62.62v9.915a.62.62,0,0,1-.62.62H13.643V57.7a.621.621,0,0,1-.383.573.611.611,0,0,1-.237.047.624.624,0,0,1-.439-.181l-12.4-12.4a.621.621,0,0,1,0-.877Z" transform="translate(0 -32.321)"/></g></g></g></g></svg>