<svg xmlns="http://www.w3.org/2000/svg" width="24.211" height="24.212" viewBox="0 0 24.211 24.212"><defs><style>.a{fill:#00acff;opacity:0.49;}.b{fill:#fff;}</style></defs><circle class="a" cx="12.106" cy="12.106" r="12.106"/><g transform="translate(4.913 8.627)"><path class="b" d="M8.807,10.423A1.461,1.461,0,1,0,7.345,8.961,1.455,1.455,0,0,0,8.807,10.423Zm-3.9,0A1.461,1.461,0,1,0,3.448,8.961,1.455,1.455,0,0,0,4.91,10.423Zm0,.974c-1.135,0-3.41.57-3.41,1.7v1.218H8.319V13.1C8.319,11.967,6.045,11.4,4.91,11.4Zm3.9,0c-.141,0-.3.01-.472.024a2.056,2.056,0,0,1,.96,1.681v1.218h2.923V13.1C12.216,11.967,9.941,11.4,8.807,11.4Z" transform="translate(2.216 -7.5)"/><g transform="translate(0 0)"><path class="b" d="M22.783,10.423A1.462,1.462,0,1,1,24.19,8.961,1.429,1.429,0,0,1,22.783,10.423Zm0,.974c.136,0,.291.01.455.024a2.073,2.073,0,0,0-.924,1.681v1.218H19.5V13.1C19.5,11.967,21.69,11.4,22.783,11.4Z" transform="translate(-19.5 -7.5)"/></g></g></svg>