<svg xmlns="http://www.w3.org/2000/svg" xmlns:xlink="http://www.w3.org/1999/xlink" width="82" height="82" viewBox="0 0 82 82"><defs><style>.a{fill:#fff;}.b{fill:#333;}.c{filter:url(#a);}</style><filter id="a" x="0" y="0" width="82" height="82" filterUnits="userSpaceOnUse"><feOffset dy="3" input="SourceAlpha"/><feGaussianBlur stdDeviation="3" result="b"/><feFlood flood-opacity="0.161"/><feComposite operator="in" in2="b"/><feComposite in="SourceGraphic"/></filter></defs><g transform="translate(-585 -2134)"><g class="c" transform="matrix(1, 0, 0, 1, 585, 2134)"><rect class="a" width="64" height="64" rx="3" transform="translate(9 6)"/></g><g transform="translate(609.304 2155.304)"><g transform="translate(21.13 3.78)"><path class="b" d="M324.652,57.959a.653.653,0,1,0,.652.654v0A.651.651,0,0,0,324.652,57.959Z" transform="translate(-324 -57.959)"/></g><g transform="translate(12.587 2.283)"><path class="b" d="M199.688,35.429A38,38,0,0,0,193.652,35a.652.652,0,1,0,0,1.3,36.691,36.691,0,0,1,5.818.41.652.652,0,1,0,.218-1.286Z" transform="translate(-193 -35)"/></g><g transform="translate(21.652 21.652)"><path class="b" d="M339.435,335.39a.652.652,0,0,0-.652.652,2.739,2.739,0,1,1-2.56-2.733.652.652,0,0,0,.085-1.3,4.044,4.044,0,1,0,3.78,4.035A.652.652,0,0,0,339.435,335.39Z" transform="translate(-332 -331.999)"/></g><g transform="translate(27.43 22.634)"><path class="b" d="M421.721,347.258l-.01-.01-.464.458.461-.461a.652.652,0,1,0-.922.922l.01.01a.652.652,0,0,0,.926-.918Z" transform="translate(-420.594 -347.053)"/></g><g transform="translate(0 0)"><path class="b" d="M32.9,23.988l-.947-.236-.458-1.1.5-.836a.652.652,0,0,0-.1-.8l-1.52-1.52a.652.652,0,0,0-.8-.1l-.836.5-1.1-.458-.236-.947A.652.652,0,0,0,26.77,18h-.292V4.434c0-1.342-1.435-2.483-4.151-3.3A32.925,32.925,0,0,0,13.239,0,32.924,32.924,0,0,0,4.151,1.135C1.435,1.951,0,3.092,0,4.434V28.957c0,1.342,1.435,2.483,4.151,3.3a32.925,32.925,0,0,0,9.088,1.135,40.616,40.616,0,0,0,4.221-.214.652.652,0,0,0-.136-1.3,39.315,39.315,0,0,1-4.085.207,31.61,31.61,0,0,1-8.713-1.08C2.148,30.292,1.3,29.456,1.3,28.957V22.813a10.122,10.122,0,0,0,2.847,1.269,32.925,32.925,0,0,0,9.088,1.135c1,0,2-.035,2.96-.1a.652.652,0,1,0-.093-1.3c-.934.066-1.9.1-2.867.1a31.61,31.61,0,0,1-8.713-1.08C2.148,22.118,1.3,21.282,1.3,20.783V14.638a10.124,10.124,0,0,0,2.847,1.269,32.924,32.924,0,0,0,9.088,1.135,32.924,32.924,0,0,0,9.088-1.135,10.126,10.126,0,0,0,2.847-1.269V18h-.553a.652.652,0,0,0-.633.495l-.236.947-1.1.458-.836-.5a.652.652,0,0,0-.8.1l-1.52,1.52a.652.652,0,0,0-.1.8l.5.836-.458,1.1-.947.236a.652.652,0,0,0-.495.633V26.77a.652.652,0,0,0,.494.633l.947.236.458,1.1-.5.836a.652.652,0,0,0,.1.8l1.52,1.52a.652.652,0,0,0,.8.1l.836-.5,1.1.458.236.947a.652.652,0,0,0,.633.495H26.77A.652.652,0,0,0,27.4,32.9l.236-.947,1.1-.458.836.5a.652.652,0,0,0,.8-.1l1.52-1.52a.652.652,0,0,0,.1-.8l-.5-.836.458-1.1L32.9,27.4a.652.652,0,0,0,.494-.633V24.621A.652.652,0,0,0,32.9,23.988ZM4.526,2.384A31.61,31.61,0,0,1,13.239,1.3a31.61,31.61,0,0,1,8.713,1.08c2.378.715,3.222,1.551,3.222,2.05s-.844,1.335-3.222,2.05a31.61,31.61,0,0,1-8.713,1.08,31.61,31.61,0,0,1-8.713-1.08C2.148,5.769,1.3,4.933,1.3,4.434S2.148,3.1,4.526,2.384ZM21.952,14.658a31.61,31.61,0,0,1-8.713,1.08,31.61,31.61,0,0,1-8.713-1.08C2.148,13.944,1.3,13.107,1.3,12.608V6.464A10.124,10.124,0,0,0,4.151,7.733a32.924,32.924,0,0,0,9.088,1.135,32.924,32.924,0,0,0,9.088-1.135,10.126,10.126,0,0,0,2.847-1.269v6.144C25.174,13.107,24.33,13.944,21.952,14.658Zm10.135,11.6-.771.192a.652.652,0,0,0-.445.383l-.71,1.712a.652.652,0,0,0,.044.586l.409.681-.8.8-.681-.409a.652.652,0,0,0-.586-.044l-1.712.71a.652.652,0,0,0-.383.445l-.192.771h-1.13l-.192-.771a.652.652,0,0,0-.383-.445l-1.712-.71a.652.652,0,0,0-.586.044l-.681.409-.8-.8.409-.681a.652.652,0,0,0,.044-.586l-.71-1.712a.652.652,0,0,0-.445-.383l-.771-.192v-1.13l.771-.192a.652.652,0,0,0,.445-.383l.71-1.712a.652.652,0,0,0-.044-.586l-.409-.681.8-.8.681.409a.652.652,0,0,0,.586.044l1.712-.71a.652.652,0,0,0,.383-.445l.192-.771h1.13l.192.771a.652.652,0,0,0,.383.445l1.712.71a.652.652,0,0,0,.586-.044l.681-.409.8.8-.409.681a.652.652,0,0,0-.044.586l.71,1.712a.652.652,0,0,0,.445.383l.771.192Z" transform="translate(0 0)"/></g></g></g></svg>