<svg xmlns="http://www.w3.org/2000/svg" width="6.668" height="4.062" viewBox="0 0 6.668 4.062"><defs><style>.a{fill:#9c9ca0;}.b{fill:#00acff;}</style></defs><path class="a" d="M133.584,380.079l-1.319,1.319a.378.378,0,0,1-.262.105h-4.762a.123.123,0,0,1-.086-.035.175.175,0,0,1-.026-.038.123.123,0,0,1,.026-.134l.482-.482.907-.907a.125.125,0,0,0,0-.175l-.3-.3.208-.21a.126.126,0,0,0,0-.176l-.91-.91H132a.38.38,0,0,1,.262.109l1.188,1.188.131.131A.368.368,0,0,1,133.584,380.079Z" transform="translate(-127.024 -377.442)"/><path class="b" d="M133.284,377.92l-.035.038-1.284,1.281a.376.376,0,0,1-.259.106h-4.765a.124.124,0,0,1-.086-.035.148.148,0,0,1-.026-.038.122.122,0,0,1,.026-.134l1.182-1.178.208-.21a.126.126,0,0,0,0-.176l-.91-.91-.479-.479a.124.124,0,0,1,.086-.21h4.765a.379.379,0,0,1,.259.108l1.319,1.319A.368.368,0,0,1,133.284,377.92Z" transform="translate(-126.82 -375.972)"/></svg>