<svg xmlns="http://www.w3.org/2000/svg" xmlns:xlink="http://www.w3.org/1999/xlink" width="82" height="82" viewBox="0 0 82 82"><defs><style>.a{fill:#fff;}.b{fill:#333;}.c{filter:url(#a);}</style><filter id="a" x="0" y="0" width="82" height="82" filterUnits="userSpaceOnUse"><feOffset dy="3" input="SourceAlpha"/><feGaussianBlur stdDeviation="3" result="b"/><feFlood flood-opacity="0.161"/><feComposite operator="in" in2="b"/><feComposite in="SourceGraphic"/></filter></defs><g transform="translate(-742 -7309)"><g class="c" transform="matrix(1, 0, 0, 1, 742, 7309)"><rect class="a" width="64" height="64" rx="5" transform="translate(9 6)"/></g><path class="b" d="M32.088,25.7a6.42,6.42,0,0,0-5.362,2.9L15.46,22.958a6.3,6.3,0,0,0,0-4.345l11.266-5.632a6.528,6.528,0,1,0-.675-1.356L14.785,17.258a6.423,6.423,0,1,0,0,7.056l11.266,5.633A6.419,6.419,0,1,0,32.088,25.7Zm0-21.151a4.909,4.909,0,1,1-4.91,4.909A4.915,4.915,0,0,1,32.088,4.544ZM9.423,25.7a4.909,4.909,0,1,1,4.909-4.909A4.915,4.915,0,0,1,9.423,25.7ZM32.088,37.027A4.909,4.909,0,1,1,37,32.118,4.915,4.915,0,0,1,32.088,37.027Z" transform="translate(762 7325.97)"/></g></svg>