<svg xmlns="http://www.w3.org/2000/svg" xmlns:xlink="http://www.w3.org/1999/xlink" width="109.006" height="36.714" viewBox="0 0 109.006 36.714"><defs><style>.a,.b,.i{fill:#fff;}.a{stroke:#fff;stroke-width:0.2px;}.c{fill:url(#a);}.d{fill:url(#b);}.e{fill:url(#c);}.f{fill:url(#d);}.g{opacity:0.2;}.g,.h,.i{isolation:isolate;}.h{opacity:0.12;}.i{opacity:0.25;}</style><linearGradient id="a" x1="2.976" y1="1.679" x2="2.906" y2="1.715" gradientUnits="objectBoundingBox"><stop offset="0" stop-color="#00a0ff"/><stop offset="0.007" stop-color="#00a1ff"/><stop offset="0.26" stop-color="#00beff"/><stop offset="0.512" stop-color="#00d2ff"/><stop offset="0.76" stop-color="#00dfff"/><stop offset="1" stop-color="#00e3ff"/></linearGradient><linearGradient id="b" x1="2.604" y1="4.034" x2="2.476" y2="4.034" gradientUnits="objectBoundingBox"><stop offset="0" stop-color="#ffe000"/><stop offset="0.409" stop-color="#ffbd00"/><stop offset="0.775" stop-color="orange"/><stop offset="1" stop-color="#ff9c00"/></linearGradient><linearGradient id="c" x1="2.302" y1="2.344" x2="2.229" y2="2.439" gradientUnits="objectBoundingBox"><stop offset="0" stop-color="#ff3a44"/><stop offset="1" stop-color="#c31162"/></linearGradient><linearGradient id="d" x1="2.246" y1="3.262" x2="2.278" y2="3.305" gradientUnits="objectBoundingBox"><stop offset="0" stop-color="#32a071"/><stop offset="0.069" stop-color="#2da771"/><stop offset="0.476" stop-color="#15cf74"/><stop offset="0.801" stop-color="#06e775"/><stop offset="1" stop-color="#00f076"/></linearGradient></defs><g transform="translate(0 0.001)"><path d="M104.969,36.844H4.037C1.776,36.844,0,34.825,0,32.255V4.719C0,2.149,1.776.13,4.037.13H104.969c2.261,0,4.037,2.019,4.037,4.589V32.255C109.006,34.825,107.23,36.844,104.969,36.844Z" transform="translate(0 -0.131)"/><g transform="translate(8.606 7.457)"><g transform="translate(26.16 0)"><path class="a" d="M771.667,130.657a2.27,2.27,0,0,1-.583,1.667,2.593,2.593,0,1,1-1.834-4.417,2.22,2.22,0,0,1,1,.25,1.815,1.815,0,0,1,.75.583l-.417.417a1.554,1.554,0,0,0-1.333-.583,1.658,1.658,0,0,0-1.334.583,2.013,2.013,0,0,0,0,2.834,2.146,2.146,0,0,0,1.334.583,1.828,1.828,0,0,0,1.417-.583,1.38,1.38,0,0,0,.417-1h-1.834v-.667h2.417v.333Zm3.834-2.084h-2.25v1.584h2.084v.583h-2.084v1.584h2.25v.667h-2.917v-5H775.5Zm2.75,4.417h-.667v-4.417h-1.417v-.583h3.5v.583h-1.417Zm3.834,0v-5h.667v5Zm3.5,0h-.667v-4.417H783.5v-.583h3.417v.583H785.5v4.417Zm7.918-.667a2.616,2.616,0,1,1,.75-1.834A2.451,2.451,0,0,1,793.5,132.324Zm-3.167-.417a1.966,1.966,0,0,0,1.333.583,1.658,1.658,0,0,0,1.333-.583,2.01,2.01,0,0,0,.583-1.417,1.717,1.717,0,0,0-.583-1.417,1.967,1.967,0,0,0-1.333-.583,1.658,1.658,0,0,0-1.333.583,2.011,2.011,0,0,0-.584,1.417A1.717,1.717,0,0,0,790.336,131.908Zm4.834,1.083v-5h.75l2.417,3.917V127.99H799v5h-.667l-2.584-4.084v4.084Z" transform="translate(-766.189 -127.907)"/><path class="b" d="M782.091,320.448a3.269,3.269,0,0,0-3.341,3.341,3.317,3.317,0,0,0,3.341,3.341,3.269,3.269,0,0,0,3.341-3.341A3.224,3.224,0,0,0,782.091,320.448Zm0,5.284a2.027,2.027,0,0,1,0-4.041,1.882,1.882,0,0,1,1.865,2.02A1.929,1.929,0,0,1,782.091,325.732Zm-7.227-5.284a3.269,3.269,0,0,0-3.341,3.341,3.317,3.317,0,0,0,3.341,3.341,3.269,3.269,0,0,0,3.341-3.341A3.224,3.224,0,0,0,774.865,320.448Zm0,5.284a2.027,2.027,0,0,1,0-4.041,1.882,1.882,0,0,1,1.865,2.02A1.929,1.929,0,0,1,774.865,325.732Zm-8.625-4.274v1.4h3.341a2.938,2.938,0,0,1-.777,1.787,3.439,3.439,0,0,1-2.564,1.01,3.618,3.618,0,0,1-3.652-3.73,3.666,3.666,0,0,1,3.652-3.73,3.852,3.852,0,0,1,2.564,1.01l1.01-1.01a4.98,4.98,0,0,0-3.5-1.4,5.129,5.129,0,1,0,0,10.257,4.472,4.472,0,0,0,3.574-1.476,4.678,4.678,0,0,0,1.243-3.264,2.914,2.914,0,0,0-.078-.855Zm35.278,1.088a3.019,3.019,0,0,0-2.8-2.1,3.13,3.13,0,0,0-3.108,3.341,3.252,3.252,0,0,0,3.264,3.341,3.188,3.188,0,0,0,2.719-1.477l-1.088-.777a1.894,1.894,0,0,1-1.632.932,1.686,1.686,0,0,1-1.632-1.01l4.429-1.865-.155-.389Zm-4.507,1.088a1.888,1.888,0,0,1,1.709-1.943,1.374,1.374,0,0,1,1.243.7l-2.953,1.243Zm-3.652,3.186h1.476v-9.713h-1.476Zm-2.331-5.672a2.558,2.558,0,0,0-1.787-.777,3.339,3.339,0,0,0-3.186,3.341,3.218,3.218,0,0,0,3.186,3.264,2.231,2.231,0,0,0,1.71-.777h.078v.466a1.766,1.766,0,0,1-3.419.777l-1.243.544a3.206,3.206,0,0,0,2.953,1.943c1.71,0,3.108-1.01,3.108-3.419V320.6h-1.4v.544Zm-1.71,4.585a2.027,2.027,0,0,1,0-4.041,2.036,2.036,0,0,1,0,4.041Zm18.96-8.625h-3.5v9.713h1.477v-3.652h2.02a3.034,3.034,0,1,0,0-6.061Zm.078,4.662h-2.1v-3.341h2.1a1.707,1.707,0,0,1,1.709,1.632,1.778,1.778,0,0,1-1.709,1.709Zm8.936-1.4a2.612,2.612,0,0,0-2.564,1.476l1.321.544a1.373,1.373,0,0,1,1.321-.7,1.46,1.46,0,0,1,1.554,1.243v.078a3.083,3.083,0,0,0-1.476-.388c-1.4,0-2.8.777-2.8,2.176a2.276,2.276,0,0,0,2.409,2.176,2.186,2.186,0,0,0,1.865-.932H819v.777h1.4v-3.73a2.941,2.941,0,0,0-3.108-2.72Zm-.155,5.362c-.466,0-1.166-.233-1.166-.855,0-.777.855-1.01,1.554-1.01a3.005,3.005,0,0,1,1.321.311A1.81,1.81,0,0,1,817.136,325.732Zm8.159-5.129-1.632,4.2h-.078l-1.709-4.2h-1.554l2.564,5.906-1.477,3.264h1.477l3.963-9.169Zm-13.054,6.216h1.476v-9.713h-1.476Z" transform="translate(-761.111 -307.665)"/></g><g transform="translate(0 0.574)"><path class="c" d="M185.518,139.019a1.629,1.629,0,0,0-.333,1.167V158.6a1.649,1.649,0,0,0,.417,1.167l.083.083L196.02,149.52v-.167Z" transform="translate(-185.185 -138.725)"/><path class="d" d="M427.491,299.806l-3.417-3.417v-.25l3.417-3.417.083.083,4.084,2.334a1.272,1.272,0,0,1,0,2.417Z" transform="translate(-413.323 -285.51)"/><path class="e" d="M206.511,374l-3.5-3.5-10.418,10.418c.417.417,1,.417,1.75.083l12.168-7" transform="translate(-192.26 -359.788)"/><path class="f" d="M206.511,140.122,194.343,133.2a1.351,1.351,0,0,0-1.75.083l10.418,10.335,3.5-3.5Z" transform="translate(-192.26 -132.911)"/><path class="g" d="M206.428,446.426l-12.085,6.834a1.363,1.363,0,0,1-1.667,0l-.083.083.083.083a1.363,1.363,0,0,0,1.667,0Z" transform="translate(-192.26 -432.297)"/><path class="h" d="M185.518,380.751a1.629,1.629,0,0,1-.333-1.167v.083a1.649,1.649,0,0,0,.417,1.167v-.083Zm18-9.168-4.167,2.334.083.083,4.084-2.334a1.385,1.385,0,0,0,.833-1.167C204.354,370.917,204.02,371.25,203.52,371.584Z" transform="translate(-185.185 -359.788)"/><path class="i" d="M187.269,132.863l16.252,9.251c.5.333.833.667.833,1.083a1.385,1.385,0,0,0-.833-1.167l-16.252-9.251c-1.167-.667-2.084-.167-2.084,1.167v.083C185.185,132.779,186.1,132.2,187.269,132.863Z" transform="translate(-185.185 -132.485)"/></g></g></g></svg>