<svg xmlns="http://www.w3.org/2000/svg" xmlns:xlink="http://www.w3.org/1999/xlink" width="82" height="82" viewBox="0 0 82 82"><defs><style>.a{fill:#fff;}.b{fill:#333;}.c{filter:url(#a);}</style><filter id="a" x="0" y="0" width="82" height="82" filterUnits="userSpaceOnUse"><feOffset dy="3" input="SourceAlpha"/><feGaussianBlur stdDeviation="3" result="b"/><feFlood flood-opacity="0.161"/><feComposite operator="in" in2="b"/><feComposite in="SourceGraphic"/></filter></defs><g transform="translate(-71 -3830)"><g class="c" transform="matrix(1, 0, 0, 1, 71, 3830)"><rect class="a" width="64" height="64" rx="3" transform="translate(9 6)"/></g><g transform="translate(65 3821.5)"><g transform="translate(30 28.5)"><path class="b" d="M52.371,62.055H31.631A1.638,1.638,0,0,1,30,60.418a13.913,13.913,0,0,1,23.806-9.783,6.535,6.535,0,0,0-1.5.826,12.277,12.277,0,0,0-20.672,8.957s11.906,0,19.138,0a6.583,6.583,0,0,0,1.6,1.637ZM43.913,44.868A8.184,8.184,0,1,1,52.1,36.684,8.184,8.184,0,0,1,43.913,44.868Zm0-1.637a6.547,6.547,0,1,0-6.547-6.547A6.547,6.547,0,0,0,43.913,43.231ZM56.189,64.1a7.366,7.366,0,1,1,7.366-7.366A7.366,7.366,0,0,1,56.189,64.1Zm0-1.637a5.729,5.729,0,1,0-5.729-5.729A5.729,5.729,0,0,0,56.189,62.464ZM58.5,57.892a.818.818,0,0,1-1.157,1.157l-1.013-1.013a.2.2,0,0,0-.289,0L55.032,59.05a.818.818,0,0,1-1.157-1.157l1.013-1.013a.2.2,0,0,0,0-.289l-1.013-1.013a.818.818,0,1,1,1.157-1.157l1.013,1.013a.2.2,0,0,0,.289,0l1.013-1.013A.818.818,0,0,1,58.5,55.578L57.491,56.59a.2.2,0,0,0,0,.289Z" transform="translate(-30 -28.5)"/></g></g></g></svg>