<svg xmlns="http://www.w3.org/2000/svg" xmlns:xlink="http://www.w3.org/1999/xlink" width="82" height="82" viewBox="0 0 82 82"><defs><style>.a{fill:#fff;}.b{fill:#333;stroke:#333;stroke-miterlimit:10;}.c{filter:url(#a);}</style><filter id="a" x="0" y="0" width="82" height="82" filterUnits="userSpaceOnUse"><feOffset dy="3" input="SourceAlpha"/><feGaussianBlur stdDeviation="3" result="b"/><feFlood flood-opacity="0.161"/><feComposite operator="in" in2="b"/><feComposite in="SourceGraphic"/></filter></defs><g transform="translate(-1007 -3764)"><g class="c" transform="matrix(1, 0, 0, 1, 1007, 3764)"><rect class="a" width="64" height="64" rx="5" transform="translate(9 6)"/></g><g transform="translate(53.98 -123)"><path class="b" d="M3.739,35.51A3.794,3.794,0,0,1,1.08,34.5,3.715,3.715,0,0,1,0,31.771V23.83a.467.467,0,1,1,.934,0v7.942a2.731,2.731,0,0,0,.789,2.059,2.852,2.852,0,0,0,2.016.746h32.7a2.848,2.848,0,0,0,2.016-.746,2.731,2.731,0,0,0,.789-2.059V23.83a.467.467,0,1,1,.934,0v7.942A3.715,3.715,0,0,1,39.1,34.5a3.79,3.79,0,0,1-2.659,1.007ZM19.8,26.062l-8.411-6.541a.493.493,0,0,1,.277-.845.465.465,0,0,1,.308.1l7.651,5.943V.467a.467.467,0,0,1,.934,0V24.72l7.651-5.943a.473.473,0,1,1,.585.744l-8.411,6.541a.484.484,0,0,1-.585,0Z" transform="translate(974.02 3907)"/></g></g></svg>