<svg xmlns="http://www.w3.org/2000/svg" width="128" height="39.529" viewBox="0 0 128 39.529"><defs><style>.a{fill:#00acff;}.b{fill:#fff;}</style></defs><g transform="translate(-80 -51)"><g transform="translate(-6404 -352)"><g transform="translate(6484 403)"><g transform="translate(0)"><circle class="a" cx="19.765" cy="19.765" r="19.765"/><path class="b" d="M212.971,384.181a.7.7,0,0,0-.46-.424l-2.551-.741a.7.7,0,0,0-.87.472.7.7,0,0,0,.476.863l.267.077a55.121,55.121,0,0,0-5.466,1.832,2.789,2.789,0,0,0-1.676-.885,11.319,11.319,0,0,0-3.655.052,18.157,18.157,0,0,0-8.244,3.7,29.045,29.045,0,0,0-3.6,3.105.691.691,0,0,0,.032.983.705.705,0,0,0,.991-.032c.054-.057,5.434-5.685,11-6.381h.01a7.375,7.375,0,0,1,3.683.081,18.7,18.7,0,0,0-3.156,1.786c-1.957,1.421-2.184,2.535-2.191,2.949a.874.874,0,0,0,0,.094l0,.053.013.051a1.567,1.567,0,0,0,1.069,1.186,1.784,1.784,0,0,0,.514.071c1.628,0,3.7-1.858,3.728-1.878s.025-.024.037-.036a.7.7,0,0,0,.059-.057,10.051,10.051,0,0,0,1.149-1.554,4.2,4.2,0,0,0,.665-1.966,54.786,54.786,0,0,1,5.9-1.956l-.216.334a.692.692,0,0,0,.212.961.705.705,0,0,0,.969-.21L212.9,384.8A.69.69,0,0,0,212.971,384.181Zm-11.017,5.985-.006,0a9.2,9.2,0,0,1-1.489,1.051,2.374,2.374,0,0,1-1.4.453c-.016,0-.048-.014-.081-.092.079-.3.623-1.593,4.24-3.305A7.4,7.4,0,0,1,201.954,390.166Z" transform="translate(-180.238 -368.539)"/></g></g><path class="b" d="M-1057.333-288.228a2.7,2.7,0,0,1-.216,1.076,2.8,2.8,0,0,1-.593.881,2.768,2.768,0,0,1-.886.594,2.735,2.735,0,0,1-1.082.217h-4.229v-9.9h3.866a2.347,2.347,0,0,1,.949.2,2.527,2.527,0,0,1,.782.529,2.5,2.5,0,0,1,.53.787,2.416,2.416,0,0,1,.2.968,3.106,3.106,0,0,1-.209,1.163,2.069,2.069,0,0,1-.684.885,2.159,2.159,0,0,1,1.187,1A3.247,3.247,0,0,1-1057.333-288.228Zm-5.542-3.136q.556.014,1.029.014h1.391a1.158,1.158,0,0,0,.89-.4,1.361,1.361,0,0,0,.362-.951,1.355,1.355,0,0,0-.362-.958,1.167,1.167,0,0,0-.89-.389h-2.42Zm0,4.536a3.977,3.977,0,0,0,.431.014h2.337a1.24,1.24,0,0,0,.55-.125,1.478,1.478,0,0,0,.452-.34,1.593,1.593,0,0,0,.306-.507,1.74,1.74,0,0,0,.111-.625,1.685,1.685,0,0,0-.111-.618,1.613,1.613,0,0,0-.306-.5,1.478,1.478,0,0,0-.452-.34,1.241,1.241,0,0,0-.55-.125h-2.769Zm8.333-8.822h0v10.19h-1.354v-10.19Zm6.058,9.589a3.014,3.014,0,0,1-.817.53,2.517,2.517,0,0,1-1.04.209,3.753,3.753,0,0,1-.823-.1,2.184,2.184,0,0,1-.859-.412,2.43,2.43,0,0,1-.67-.845,3.108,3.108,0,0,1-.272-1.4v-4.062h1.284v4.062a1.806,1.806,0,0,0,.133.733,1.3,1.3,0,0,0,.349.482,1.378,1.378,0,0,0,.5.265,1.98,1.98,0,0,0,.572.084,1.838,1.838,0,0,0,.51-.084,1.68,1.68,0,0,0,.538-.272,1.645,1.645,0,0,0,.426-.482,1.367,1.367,0,0,0,.175-.712v-4.076h1.354v6.686h-1.075Zm6.114.768a3.417,3.417,0,0,1-1.361-.272,3.5,3.5,0,0,1-1.11-.747,3.48,3.48,0,0,1-.747-1.117,3.47,3.47,0,0,1-.272-1.368,3.632,3.632,0,0,1,.258-1.368,3.6,3.6,0,0,1,.7-1.117,3.257,3.257,0,0,1,1.026-.747,2.947,2.947,0,0,1,1.256-.272,3.3,3.3,0,0,1,1.263.237,2.594,2.594,0,0,1,1.005.74,3.567,3.567,0,0,1,.663,1.277,6.357,6.357,0,0,1,.237,1.85h-4.969a2.282,2.282,0,0,0,.307.677,2.4,2.4,0,0,0,.5.544,2.16,2.16,0,0,0,.642.356,2.226,2.226,0,0,0,.747.126,2.461,2.461,0,0,0,.984-.2,2.458,2.458,0,0,0,.775-.516l.837.838a3.641,3.641,0,0,1-1.193.782A3.978,3.978,0,0,1-1042.369-285.293Zm-.251-5.779a1.5,1.5,0,0,0-.607.126,1.939,1.939,0,0,0-.53.349,2.156,2.156,0,0,0-.419.53,2.464,2.464,0,0,0-.258.67h3.531a2.158,2.158,0,0,0-.154-.642,1.673,1.673,0,0,0-.349-.537,1.646,1.646,0,0,0-.523-.363A1.693,1.693,0,0,0-1042.621-291.072Zm11.083,2.834a2.714,2.714,0,0,1-.251,1.165,2.7,2.7,0,0,1-.74.942,3.709,3.709,0,0,1-2.471.81,4.661,4.661,0,0,1-2.122-.477,3.154,3.154,0,0,1-1.4-1.282l1.242-.642a1.827,1.827,0,0,0,.886.775,3.364,3.364,0,0,0,1.389.272q2.024,0,2.024-1.552a1.119,1.119,0,0,0-.1-.5,1.282,1.282,0,0,0-.314-.392,4.843,4.843,0,0,0-1.8-.755,8.55,8.55,0,0,1-1.326-.433,3.425,3.425,0,0,1-.907-.559,2.31,2.31,0,0,1-.879-1.887,2.637,2.637,0,0,1,.23-1.1,2.655,2.655,0,0,1,.649-.888,2.88,2.88,0,0,1,1.012-.566,4.108,4.108,0,0,1,1.278-.189,4.477,4.477,0,0,1,1.877.391,2.919,2.919,0,0,1,1.305,1.1l-1.131.7a2.252,2.252,0,0,0-.935-.691,3.1,3.1,0,0,0-1.116-.2,2.047,2.047,0,0,0-.768.14,2.2,2.2,0,0,0-.586.335.982.982,0,0,0-.286.412,1.49,1.49,0,0,0-.091.523,1.294,1.294,0,0,0,.056.37.942.942,0,0,0,.265.391,2.263,2.263,0,0,0,.614.391,6.7,6.7,0,0,0,1.1.37,9.535,9.535,0,0,1,1.41.454,3.7,3.7,0,0,1,.963.579A2.451,2.451,0,0,1-1031.538-288.238Zm4.662,2.945a3.419,3.419,0,0,1-1.361-.272,3.5,3.5,0,0,1-1.109-.747,3.484,3.484,0,0,1-.747-1.117,3.469,3.469,0,0,1-.272-1.368,3.632,3.632,0,0,1,.258-1.368,3.605,3.605,0,0,1,.7-1.117,3.256,3.256,0,0,1,1.026-.747,2.947,2.947,0,0,1,1.256-.272,3.3,3.3,0,0,1,1.263.237,2.594,2.594,0,0,1,1,.74,3.567,3.567,0,0,1,.663,1.277,6.357,6.357,0,0,1,.237,1.85h-4.969a2.294,2.294,0,0,0,.307.677,2.418,2.418,0,0,0,.5.544,2.167,2.167,0,0,0,.643.356,2.222,2.222,0,0,0,.746.126,2.461,2.461,0,0,0,.984-.2,2.458,2.458,0,0,0,.775-.516l.837.838a3.641,3.641,0,0,1-1.193.782A3.978,3.978,0,0,1-1026.875-285.293Zm-.251-5.779a1.493,1.493,0,0,0-.607.126,1.94,1.94,0,0,0-.531.349,2.156,2.156,0,0,0-.419.53,2.463,2.463,0,0,0-.258.67h3.531a2.151,2.151,0,0,0-.154-.642,1.677,1.677,0,0,0-.349-.537,1.652,1.652,0,0,0-.523-.363A1.694,1.694,0,0,0-1027.127-291.072Zm7.538,5.779a3.154,3.154,0,0,1-1.305-.272,3.3,3.3,0,0,1-1.057-.747,3.572,3.572,0,0,1-.712-1.117,3.581,3.581,0,0,1-.262-1.368,3.581,3.581,0,0,1,.262-1.368,3.573,3.573,0,0,1,.712-1.117,3.3,3.3,0,0,1,1.057-.747,3.153,3.153,0,0,1,1.305-.272,3.137,3.137,0,0,1,1.493.363,3.349,3.349,0,0,1,1.145.991l-.949.74a2,2,0,0,0-.7-.635,1.892,1.892,0,0,0-.914-.23,1.871,1.871,0,0,0-.8.175,2.031,2.031,0,0,0-.656.482,2.281,2.281,0,0,0-.44.726,2.473,2.473,0,0,0-.161.893,2.473,2.473,0,0,0,.161.893,2.368,2.368,0,0,0,.44.733,2.073,2.073,0,0,0,.656.5,1.811,1.811,0,0,0,.8.182,1.768,1.768,0,0,0,.991-.293,2.258,2.258,0,0,0,.726-.782l.921.81a3.316,3.316,0,0,1-1.159,1.068A3.124,3.124,0,0,1-1019.589-285.293Zm8.557-.768a3.015,3.015,0,0,1-.817.53,2.517,2.517,0,0,1-1.04.209,3.756,3.756,0,0,1-.823-.1,2.184,2.184,0,0,1-.858-.412,2.43,2.43,0,0,1-.67-.845,3.113,3.113,0,0,1-.272-1.4v-4.062h1.284v4.062a1.811,1.811,0,0,0,.133.733,1.3,1.3,0,0,0,.349.482,1.378,1.378,0,0,0,.5.265,1.983,1.983,0,0,0,.572.084,1.838,1.838,0,0,0,.509-.084,1.674,1.674,0,0,0,.537-.272,1.64,1.64,0,0,0,.426-.482,1.367,1.367,0,0,0,.175-.712v-4.076h1.354v6.686h-1.075Zm6.979-4.844-.2-.084q-.084-.028-.2-.056a.975.975,0,0,0-.237-.028,2.1,2.1,0,0,0-.754.133,1.915,1.915,0,0,0-.6.356,1.682,1.682,0,0,0-.4.523,1.428,1.428,0,0,0-.147.635l-.014,3.964h-1.354v-6.686h1.075l.279.74a2.06,2.06,0,0,1,.733-.649,2.38,2.38,0,0,1,1.138-.244,4.815,4.815,0,0,1,1.019.126Zm4.411,5.611a3.418,3.418,0,0,1-1.361-.272,3.5,3.5,0,0,1-1.11-.747,3.484,3.484,0,0,1-.747-1.117,3.468,3.468,0,0,1-.272-1.368,3.632,3.632,0,0,1,.258-1.368,3.6,3.6,0,0,1,.7-1.117,3.254,3.254,0,0,1,1.026-.747,2.946,2.946,0,0,1,1.256-.272,3.3,3.3,0,0,1,1.263.237,2.593,2.593,0,0,1,1.005.74,3.561,3.561,0,0,1,.663,1.277,6.359,6.359,0,0,1,.237,1.85h-4.969a2.283,2.283,0,0,0,.307.677,2.41,2.41,0,0,0,.5.544,2.165,2.165,0,0,0,.642.356,2.225,2.225,0,0,0,.747.126,2.461,2.461,0,0,0,.984-.2,2.456,2.456,0,0,0,.775-.516l.838.838a3.643,3.643,0,0,1-1.193.782A3.978,3.978,0,0,1-999.642-285.293Zm-.251-5.779a1.494,1.494,0,0,0-.607.126,1.939,1.939,0,0,0-.53.349,2.152,2.152,0,0,0-.419.53,2.471,2.471,0,0,0-.258.67h3.531a2.156,2.156,0,0,0-.154-.642,1.672,1.672,0,0,0-.349-.537,1.648,1.648,0,0,0-.523-.363A1.694,1.694,0,0,0-999.894-291.072Zm7.594,4.215a1.438,1.438,0,0,0,.223-.251.546.546,0,0,0,.1-.321.5.5,0,0,0-.161-.377,1.4,1.4,0,0,0-.391-.258,2.445,2.445,0,0,0-.482-.16q-.251-.056-.419-.1a6.5,6.5,0,0,1-.865-.272,2.913,2.913,0,0,1-.7-.391,1.762,1.762,0,0,1-.475-.544,1.516,1.516,0,0,1-.174-.747,1.57,1.57,0,0,1,.193-.761,2.17,2.17,0,0,1,.518-.628,2.531,2.531,0,0,1,.763-.433,2.672,2.672,0,0,1,.927-.16,2.647,2.647,0,0,1,.824.127,2.669,2.669,0,0,1,.7.346,2.116,2.116,0,0,1,.53.529,1.735,1.735,0,0,1,.286.687l-1.214.293a1.015,1.015,0,0,0-.363-.558,1.2,1.2,0,0,0-.768-.223,1.344,1.344,0,0,0-.349.049,1.2,1.2,0,0,0-.335.146.973.973,0,0,0-.258.237.518.518,0,0,0-.1.32.5.5,0,0,0,.119.334.989.989,0,0,0,.286.23,1.8,1.8,0,0,0,.363.146q.2.056.363.1a8.041,8.041,0,0,1,1.228.39,3.039,3.039,0,0,1,.782.459,1.415,1.415,0,0,1,.412.55,1.823,1.823,0,0,1,.119.675,1.79,1.79,0,0,1-.2.835,2.1,2.1,0,0,1-.557.675,2.638,2.638,0,0,1-.849.446,3.438,3.438,0,0,1-1.065.16,2.823,2.823,0,0,1-1.538-.426,2.1,2.1,0,0,1-.912-1.138l1.144-.517a1.305,1.305,0,0,0,.572.663,1.756,1.756,0,0,0,.8.174A1.432,1.432,0,0,0-992.3-286.856Z" transform="translate(7594.823 713.112)"/></g><path class="b" d="M17779,8816a4,4,0,1,1,4-4A4.006,4.006,0,0,1,17779,8816Zm-.625-3.191h.684l.744,1.018h.961l-.906-1.245a1.232,1.232,0,0,0,.57-1.1,1.3,1.3,0,0,0-1.477-1.308h-1.352v3.655h.775v-1.017Zm.576-.776h-.576v-1.089h.576c.705,0,.705.4.705.535S17779.658,8812.033,17778.953,8812.033Z" transform="translate(-17575 -8745.807)"/></g></svg>