<svg xmlns="http://www.w3.org/2000/svg" width="6.248" height="3.806" viewBox="0 0 6.248 3.806"><defs><style>.a{fill:#9c9ca0;}.b{fill:#00acff;}</style></defs><path class="a" d="M133.177,379.957l-1.236,1.236a.354.354,0,0,1-.245.1h-4.462a.115.115,0,0,1-.081-.033.163.163,0,0,1-.024-.036.115.115,0,0,1,.024-.126l.452-.452.85-.85a.117.117,0,0,0,0-.164l-.284-.285.195-.2a.118.118,0,0,0,0-.165l-.853-.853H131.7a.356.356,0,0,1,.245.1l1.113,1.113.123.123A.345.345,0,0,1,133.177,379.957Z" transform="translate(-127.03 -377.485)"/><path class="b" d="M132.877,377.8l-.033.036-1.2,1.2a.353.353,0,0,1-.242.1h-4.465a.116.116,0,0,1-.081-.033.139.139,0,0,1-.024-.036.114.114,0,0,1,.024-.126l1.107-1.1.195-.2a.118.118,0,0,0,0-.165l-.853-.853-.449-.449a.115.115,0,0,1-.033-.081.116.116,0,0,1,.114-.116H131.4a.355.355,0,0,1,.242.1l1.236,1.236A.345.345,0,0,1,132.877,377.8Z" transform="translate(-126.82 -375.972)"/></svg>