<svg xmlns="http://www.w3.org/2000/svg" xmlns:xlink="http://www.w3.org/1999/xlink" width="82" height="82" viewBox="0 0 82 82"><defs><style>.a{fill:#fff;}.b{filter:url(#a);}</style><filter id="a" x="0" y="0" width="82" height="82" filterUnits="userSpaceOnUse"><feOffset dy="3" input="SourceAlpha"/><feGaussianBlur stdDeviation="3" result="b"/><feFlood flood-opacity="0.161"/><feComposite operator="in" in2="b"/><feComposite in="SourceGraphic"/></filter></defs><g transform="translate(-71 -8771)"><g transform="translate(0 951)"><g transform="translate(0 6350)"><g class="b" transform="matrix(1, 0, 0, 1, 71, 1470)"><rect class="a" width="64" height="64" rx="5" transform="translate(9 6)"/></g></g></g><g transform="translate(-50 -104)"><g transform="translate(150 8893)"><path d="M35.843,1H15.872A1.872,1.872,0,0,0,14,2.872v36.2a1.872,1.872,0,0,0,1.872,1.872h19.97a1.872,1.872,0,0,0,1.872-1.872V2.872A1.872,1.872,0,0,0,35.843,1Zm.624,38.069a.624.624,0,0,1-.624.624H15.872a.624.624,0,0,1-.624-.624V2.872a.624.624,0,0,1,.624-.624h19.97a.624.624,0,0,1,.624.624Z" transform="translate(-14 -1)"/><path d="M35.6,14H20.624a.624.624,0,0,0-.624.624v6.241a.624.624,0,0,0,.624.624H29.28l4.038,3.588a.624.624,0,0,0,1.036-.468v-3.12H35.6a.624.624,0,0,0,.624-.624V14.624A.624.624,0,0,0,35.6,14Zm-.624,6.241H33.73a.624.624,0,0,0-.624.624v2.353L29.929,20.4a.624.624,0,0,0-.412-.156H21.248V15.248h13.73Z" transform="translate(-16.256 -5.887)"/><path d="M24.624,20.248h6.241a.624.624,0,1,0,0-1.248H24.624a.624.624,0,0,0,0,1.248Z" transform="translate(-17.759 -7.767)"/><path d="M38.624,20.248h1.248a.624.624,0,1,0,0-1.248H38.624a.624.624,0,1,0,0,1.248Z" transform="translate(-23.022 -7.767)"/><path d="M35.6,34H20.624a.624.624,0,0,0-.624.624v6.241a.624.624,0,0,0,.624.624h1.248v3.12a.623.623,0,0,0,1.036.468l4.038-3.588H35.6a.624.624,0,0,0,.624-.624V34.624A.624.624,0,0,0,35.6,34Zm-.624,6.241H26.709a.624.624,0,0,0-.412.156L23.12,43.218V40.865a.624.624,0,0,0-.624-.624H21.248V35.248h13.73Z" transform="translate(-16.256 -13.406)"/><path d="M30.624,40.248h6.241a.624.624,0,1,0,0-1.248H30.624a.624.624,0,1,0,0,1.248Z" transform="translate(-20.015 -15.285)"/><path d="M24.624,40.248h1.248a.624.624,0,1,0,0-1.248H24.624a.624.624,0,1,0,0,1.248Z" transform="translate(-17.759 -15.285)"/><path d="M30.624,6.248h2.5A.624.624,0,1,0,33.12,5h-2.5a.624.624,0,0,0,0,1.248Z" transform="translate(-20.015 -2.504)"/><path d="M33.617,59H28.624a.624.624,0,0,0,0,1.248h4.993a.624.624,0,1,0,0-1.248Z" transform="translate(-19.263 -22.804)"/></g></g></g></svg>