<svg xmlns="http://www.w3.org/2000/svg" width="172.175" height="64.046" viewBox="0 0 172.175 64.046"><defs><style>.a{fill:#00acff;}.b{fill:#fff;}.c{fill:#19c261;}</style></defs><g transform="translate(-173 -4064)"><g transform="translate(173 4064)"><g transform="translate(0 0)"><circle class="a" cx="32.023" cy="32.023" r="32.023"/><path class="b" d="M229.056,384.92a1.132,1.132,0,0,0-.744-.687l-4.13-1.2a1.137,1.137,0,0,0-1.41.764,1.125,1.125,0,0,0,.77,1.4l.432.125a89.265,89.265,0,0,0-8.851,2.967,4.516,4.516,0,0,0-2.714-1.433,18.327,18.327,0,0,0-5.919.085c-4.145.52-8.637,2.538-13.35,6a47.031,47.031,0,0,0-5.831,5.028,1.119,1.119,0,0,0,.052,1.591,1.142,1.142,0,0,0,1.6-.051c.087-.092,8.8-9.206,17.818-10.333l.017,0c3.49-.489,5.163-.217,5.964.132a30.29,30.29,0,0,0-5.111,2.892c-3.17,2.3-3.537,4.105-3.548,4.776a1.414,1.414,0,0,0,.006.152l.008.085.021.083a2.537,2.537,0,0,0,1.731,1.921,2.89,2.89,0,0,0,.832.115c2.636,0,6-3.008,6.036-3.042.021-.019.04-.039.059-.059a1.139,1.139,0,0,0,.1-.092,16.28,16.28,0,0,0,1.861-2.516,6.8,6.8,0,0,0,1.077-3.184,88.709,88.709,0,0,1,9.552-3.168l-.35.54a1.12,1.12,0,0,0,.342,1.556,1.142,1.142,0,0,0,1.569-.34l2.006-3.1A1.118,1.118,0,0,0,229.056,384.92Zm-17.841,9.692-.009.008a14.9,14.9,0,0,1-2.412,1.7,3.844,3.844,0,0,1-2.27.733c-.026-.008-.077-.023-.131-.148.128-.479,1.009-2.58,6.867-5.352A11.975,11.975,0,0,1,211.215,394.612Z" transform="translate(-176.05 -359.556)"/></g></g><g transform="translate(281.164 4064)"><circle class="b" cx="32.005" cy="32.005" r="32.005"/><path class="c" d="M32.005,0A32.005,32.005,0,1,0,64.01,32.005,32.009,32.009,0,0,0,32.005,0Zm.678,50.64h-.008a19.148,19.148,0,0,1-9.154-2.331L13.367,50.972l2.718-9.923a19.157,19.157,0,1,1,16.6,9.591Zm0,0"/><path class="c" d="M150,124.469a15.923,15.923,0,0,0-13.494,24.385l.378.6-1.609,5.874,6.026-1.58.582.345a15.9,15.9,0,0,0,8.1,2.219h.006A15.922,15.922,0,0,0,150,124.469Zm9.365,22.758c-.4,1.117-2.311,2.138-3.231,2.275a6.569,6.569,0,0,1-3.015-.189,27.64,27.64,0,0,1-2.729-1.008c-4.8-2.073-7.937-6.905-8.176-7.225a9.306,9.306,0,0,1-1.954-4.95,5.365,5.365,0,0,1,1.675-3.991,1.759,1.759,0,0,1,1.277-.6c.319,0,.638,0,.917.017.294.015.689-.112,1.077.821.4.958,1.356,3.313,1.476,3.552a.882.882,0,0,1,.04.839,13.643,13.643,0,0,1-1.2,1.636c-.212.263-.489.5-.21.977a14.427,14.427,0,0,0,2.663,3.314,13.083,13.083,0,0,0,3.849,2.375c.478.239.757.2,1.037-.12s1.2-1.4,1.515-1.876.638-.4,1.077-.239,2.792,1.317,3.271,1.556.8.359.917.559a3.992,3.992,0,0,1-.279,2.275Zm0,0" transform="translate(-117.309 -108.908)"/></g><g transform="translate(242.778 4089.308)"><g transform="translate(0 0)"><g transform="translate(0 0)"><path class="b" d="M15.275,38.8,8.868,32.414a.324.324,0,0,0-.349-.069.32.32,0,0,0-.2.3v3.521h-8a.32.32,0,0,0-.32.32V41.6a.32.32,0,0,0,.32.32h8V45.43a.321.321,0,0,0,.2.3.315.315,0,0,0,.122.024.323.323,0,0,0,.227-.093l6.407-6.4a.321.321,0,0,0,0-.453Z" transform="translate(0 -32.321)"/></g></g><g transform="translate(17.046 0)"><g transform="translate(0)"><path class="b" d="M.094,38.8,6.5,32.414a.324.324,0,0,1,.349-.069.32.32,0,0,1,.2.3v3.521h8a.32.32,0,0,1,.32.32V41.6a.32.32,0,0,1-.32.32h-8V45.43a.321.321,0,0,1-.2.3.315.315,0,0,1-.122.024.323.323,0,0,1-.227-.093l-6.407-6.4a.321.321,0,0,1,0-.453Z" transform="translate(0 -32.321)"/></g></g></g></g></svg>