<svg xmlns="http://www.w3.org/2000/svg" width="14.939" height="14.939" viewBox="0 0 14.939 14.939"><defs><style>.a{fill:#7fd5ff;}.b{fill:#fff;}</style></defs><circle class="a" cx="7.47" cy="7.47" r="7.47" transform="translate(0 0)"/><g transform="translate(2.327 5.001)"><path class="b" d="M6.51,9.5a1,1,0,1,0-1-1A1,1,0,0,0,6.51,9.5Zm-2.672,0a1,1,0,1,0-1-1A1,1,0,0,0,3.838,9.5Zm0,.668c-.778,0-2.338.391-2.338,1.169v.835H6.176v-.835C6.176,10.563,4.616,10.172,3.838,10.172Zm2.672,0c-.1,0-.207.007-.324.017a1.409,1.409,0,0,1,.658,1.152v.835h2v-.835C8.848,10.563,7.288,10.172,6.51,10.172Z" transform="translate(1.048 -7.5)"/><g transform="translate(0 0)"><path class="b" d="M21.751,9.5a1,1,0,1,1,.965-1A.98.98,0,0,1,21.751,9.5Zm0,.668c.093,0,.2.007.312.017a1.421,1.421,0,0,0-.634,1.152v.835H19.5v-.835C19.5,10.563,21,10.172,21.751,10.172Z" transform="translate(-19.5 -7.5)"/></g></g></svg>