<svg xmlns="http://www.w3.org/2000/svg" width="10" height="10" viewBox="0 0 10 10"><defs><style>.a{fill:#fff;}.b{fill:#00acff;}</style></defs><g transform="translate(-0.074 -0.064)"><g transform="translate(0.074 0.064)"><circle class="a" cx="5" cy="5" r="5"/></g><path class="b" d="M194.2,383.268a.185.185,0,0,0-.128-.1l-.707-.175a.2.2,0,0,0-.241.111.162.162,0,0,0,.132.2l.074.018q-.862.208-1.516.432a.822.822,0,0,0-.465-.208,3.689,3.689,0,0,0-1.014.012,5.513,5.513,0,0,0-2.287.872,7.806,7.806,0,0,0-1,.731.146.146,0,0,0,.009.231.215.215,0,0,0,.133.044.213.213,0,0,0,.142-.052,6.539,6.539,0,0,1,3.052-1.5h0a2.394,2.394,0,0,1,1.021.019,5.492,5.492,0,0,0-.875.421c-.543.335-.606.6-.608.695a.173.173,0,0,0,0,.022v.012l0,.012a.4.4,0,0,0,.3.279.578.578,0,0,0,.142.017,2.213,2.213,0,0,0,1.034-.442l.01-.009.016-.013a2.449,2.449,0,0,0,.319-.366.892.892,0,0,0,.185-.463c.424-.146.96-.3,1.636-.461l-.06.079a.149.149,0,0,0,.059.226.221.221,0,0,0,.1.026.206.206,0,0,0,.164-.075l.344-.451A.142.142,0,0,0,194.2,383.268Zm-3.056,1.41h0a2.59,2.59,0,0,1-.413.248.746.746,0,0,1-.389.107s-.013,0-.022-.022c.022-.07.173-.375,1.176-.779A1.753,1.753,0,0,1,191.147,384.678Z" transform="translate(-185.415 -379.024)"/></g></svg>