<svg xmlns="http://www.w3.org/2000/svg" width="4.898" height="5.748" viewBox="0 0 4.898 5.748"><defs><style>.a{fill:#9c9ca0;fill-rule:evenodd;}</style></defs><path class="a" d="M4.731,3.412a1.806,1.806,0,0,0-.411-1.16,1.843,1.843,0,0,0-1.032-.661V1.4a.43.43,0,0,0-.736-.3.415.415,0,0,0-.128.3v.189A1.81,1.81,0,0,0,1.4,2.252a1.823,1.823,0,0,0-.4,1.16V4.991l-.58.58v.283h4.9V5.571l-.58-.58V3.412ZM3.26,6.55a.535.535,0,0,0,.175-.4H2.289a.576.576,0,0,0,.567.567A.567.567,0,0,0,3.26,6.55Z" transform="translate(-0.413 -0.97)"/></svg>