<svg xmlns="http://www.w3.org/2000/svg" width="4.59" height="5.388" viewBox="0 0 4.59 5.388"><defs><style>.a{fill:#9c9ca0;fill-rule:evenodd;}</style></defs><path class="a" d="M4.459,3.259a1.692,1.692,0,0,0-.386-1.087,1.727,1.727,0,0,0-.967-.62V1.375a.4.4,0,0,0-.689-.285.389.389,0,0,0-.12.285v.177a1.7,1.7,0,0,0-.961.62A1.709,1.709,0,0,0,.957,3.259v1.48l-.544.544v.266H5V5.282l-.544-.544V3.259ZM3.081,6.2a.5.5,0,0,0,.164-.373H2.171a.54.54,0,0,0,.531.531A.531.531,0,0,0,3.081,6.2Z" transform="translate(-0.413 -0.97)"/></svg>