<svg xmlns="http://www.w3.org/2000/svg" width="10.809" height="9.743" viewBox="0 0 10.809 9.743"><defs><style>.a{fill:#9c9ca0;fill-rule:evenodd;}</style></defs><path class="a" d="M3.768,8.3a2.613,2.613,0,0,1-.8-1.916,2.615,2.615,0,0,1,.8-1.916,2.615,2.615,0,0,1,1.916-.8,2.615,2.615,0,0,1,1.916.8,2.615,2.615,0,0,1,.8,1.916A2.613,2.613,0,0,1,7.6,8.3a2.615,2.615,0,0,1-1.916.8,2.615,2.615,0,0,1-1.916-.8Zm-.7-6.254H1.346a1,1,0,0,0-.748.33,1.065,1.065,0,0,0-.317.761v6.5a1.064,1.064,0,0,0,.317.761,1,1,0,0,0,.748.33h8.677a1,1,0,0,0,.748-.33,1.066,1.066,0,0,0,.317-.761v-6.5a1.067,1.067,0,0,0-.317-.761,1,1,0,0,0-.748-.33H8.3L7.308.98H4.06ZM4.466,7.6A1.715,1.715,0,0,0,6.9,7.6a1.715,1.715,0,0,0,0-2.436,1.715,1.715,0,0,0-2.436,0,1.715,1.715,0,0,0,0,2.436Z" transform="translate(-0.28 -0.98)"/></svg>