<svg xmlns="http://www.w3.org/2000/svg" width="5.977" height="5.387" viewBox="0 0 5.977 5.387"><defs><style>.a{fill:#9c9ca0;fill-rule:evenodd;}</style></defs><path class="a" d="M2.209,5.028a1.491,1.491,0,0,1,0-2.119,1.446,1.446,0,0,1,1.059-.442,1.446,1.446,0,0,1,1.059.442,1.49,1.49,0,0,1,0,2.119,1.446,1.446,0,0,1-1.059.442,1.446,1.446,0,0,1-1.059-.442ZM1.823,1.569H.869a.556.556,0,0,0-.414.182.589.589,0,0,0-.175.421V5.764a.588.588,0,0,0,.175.421.556.556,0,0,0,.414.182h4.8a.556.556,0,0,0,.414-.182.59.59,0,0,0,.175-.421V2.172a.59.59,0,0,0-.175-.421.556.556,0,0,0-.414-.182H4.713L4.166.98H2.37Zm.772,3.072a.948.948,0,0,0,1.347,0,.948.948,0,0,0,0-1.347.948.948,0,0,0-1.347,0,.948.948,0,0,0,0,1.347Z" transform="translate(-0.28 -0.98)"/></svg>