<svg xmlns="http://www.w3.org/2000/svg" width="2.681" height="2.681" viewBox="0 0 2.681 2.681"><defs><style>.a{fill:#fff;}</style></defs><path class="a" d="M185.344.1a.1.1,0,0,0-.054-.086.093.093,0,0,0-.1.011L184.341.7l1,1Z" transform="translate(-183.238 0)"/><path class="a" d="M2.7,2.585.208.1A.1.1,0,0,0,.073.23l.6.6H.619a.195.195,0,0,0-.191.191v.766a.192.192,0,0,0,.191.191h.444L2,2.727a.1.1,0,0,0,.059.021.112.112,0,0,0,.042-.01.1.1,0,0,0,.054-.086V2.309l.411.411A.1.1,0,1,0,2.7,2.585Z" transform="translate(-0.045 -0.067)"/></svg>