<svg xmlns="http://www.w3.org/2000/svg" width="3.966" height="3.967" viewBox="0 0 3.966 3.967"><defs><style>.a{fill:#fff;}</style></defs><path class="a" d="M185.826.143a.142.142,0,0,0-.079-.127.138.138,0,0,0-.15.017l-1.255,1,1.484,1.484Z" transform="translate(-182.709 0)"/><path class="a" d="M3.97,3.791.287.108a.142.142,0,0,0-.2.2L.978,1.2H.895a.288.288,0,0,0-.283.283V2.617A.284.284,0,0,0,.895,2.9h.657L2.932,4a.144.144,0,0,0,.088.031.166.166,0,0,0,.062-.014.142.142,0,0,0,.079-.127V3.384l.608.608a.142.142,0,1,0,.2-.2Z" transform="translate(-0.045 -0.066)"/></svg>