<svg xmlns="http://www.w3.org/2000/svg" width="9.576" height="9.908" viewBox="0 0 9.576 9.908"><defs><style>.a{fill:#9c9ca0;}</style></defs><path class="a" d="M7.2,13.184h.531v1.238a.689.689,0,0,0,.686.686h7.177a.689.689,0,0,0,.686-.686V5.886a.689.689,0,0,0-.686-.686H8.414a.689.689,0,0,0-.686.686V7.124H7.2a.5.5,0,0,0-.5.5v.243a.5.5,0,0,0,.5.5h.531V9.546H7.2a.5.5,0,0,0-.5.5v.243a.5.5,0,0,0,.5.5h.531v1.183H7.2a.5.5,0,0,0-.5.5v.243A.491.491,0,0,0,7.2,13.184Zm2.189-.641a1.315,1.315,0,0,1,.531-1.051,8.312,8.312,0,0,1,1.194-.719.057.057,0,0,0,.022-.044v-.387a1.383,1.383,0,0,1-.177-.52c-.055,0-.133-.088-.221-.376-.111-.4.011-.464.111-.453a.96.96,0,0,1-.022-.608,1.187,1.187,0,0,1,.31-.542,1.972,1.972,0,0,1,.288-.243,1.314,1.314,0,0,1,.276-.144h0a.942.942,0,0,1,.254-.044,1.088,1.088,0,0,1,.641.133.8.8,0,0,1,.31.288s.564.044.321,1.227c.077.022.133.133.044.442-.111.387-.21.409-.265.365a1.671,1.671,0,0,1-.133.42v.442a.057.057,0,0,0,.022.044,8.312,8.312,0,0,1,1.194.719,1.3,1.3,0,0,1,.531,1.051v.1a.25.25,0,0,1-.254.254H9.641a.25.25,0,0,1-.254-.254Z" transform="translate(-6.7 -5.2)"/></svg>