<svg xmlns="http://www.w3.org/2000/svg" width="9.913" height="9.913" viewBox="0 0 9.913 9.913"><defs><style>.a{fill:#fff;stroke:#fff;stroke-width:0.2px;}</style></defs><g transform="translate(-2.284 -24.9)"><g transform="translate(2.384 25)"><path class="a" d="M29.857,25a4.857,4.857,0,1,0,4.857,4.857A4.861,4.861,0,0,0,29.857,25Zm0,9.059a4.2,4.2,0,1,1,4.2-4.2A4.208,4.208,0,0,1,29.857,34.059Z" transform="translate(-25 -25)"/><path class="a" d="M125.162,116.428a2.205,2.205,0,0,1,1.567.649.426.426,0,0,0,.594,0,.412.412,0,0,0,0-.586,3.057,3.057,0,1,0-.116,4.429.41.41,0,0,0,.027-.584.424.424,0,0,0-.592-.027,2.225,2.225,0,1,1-1.486-3.885Z" transform="translate(-120.122 -113.754)"/></g></g></svg>