<svg xmlns="http://www.w3.org/2000/svg" width="4.781" height="4.781" viewBox="0 0 4.781 4.781"><defs><style>.a{fill:#fff;}</style></defs><g transform="translate(0 0)"><g transform="translate(0 0)"><path class="a" d="M27.391,25a2.391,2.391,0,1,0,2.391,2.391A2.393,2.393,0,0,0,27.391,25Zm0,4.459a2.069,2.069,0,1,1,2.069-2.069A2.071,2.071,0,0,1,27.391,29.459Z" transform="translate(-25 -25)"/><path class="a" d="M123.534,115.993a1.026,1.026,0,0,1,.734.308.2.2,0,1,0,.28-.276,1.417,1.417,0,0,0-1.015-.425,1.451,1.451,0,0,0,0,2.9,1.419,1.419,0,0,0,.96-.374.2.2,0,0,0-.265-.29,1.03,1.03,0,0,1-.695.271,1.058,1.058,0,0,1,0-2.116Z" transform="translate(-121.068 -114.637)"/></g></g></svg>