<svg xmlns="http://www.w3.org/2000/svg" width="5.556" height="5.748" viewBox="0 0 5.556 5.748"><defs><style>.a{fill:#9c9ca0;}</style></defs><path class="a" d="M6.989,9.832H7.3v.719a.4.4,0,0,0,.4.4h4.164a.4.4,0,0,0,.4-.4V5.6a.4.4,0,0,0-.4-.4H7.694a.4.4,0,0,0-.4.4v.719H6.989a.288.288,0,0,0-.289.289v.141a.288.288,0,0,0,.289.289H7.3v.686H6.989A.288.288,0,0,0,6.7,8.01v.141a.288.288,0,0,0,.289.289H7.3v.686H6.989a.288.288,0,0,0-.289.289v.141A.285.285,0,0,0,6.989,9.832Zm1.27-.372a.763.763,0,0,1,.308-.609,4.822,4.822,0,0,1,.693-.417.033.033,0,0,0,.013-.026V8.183a.8.8,0,0,1-.1-.3c-.032,0-.077-.051-.128-.218-.064-.231.006-.269.064-.263a.557.557,0,0,1-.013-.353.689.689,0,0,1,.18-.314,1.144,1.144,0,0,1,.167-.141.762.762,0,0,1,.16-.083h0a.547.547,0,0,1,.148-.026.631.631,0,0,1,.372.077.466.466,0,0,1,.18.167s.327.026.186.712c.045.013.077.077.026.257-.064.225-.122.237-.154.212a.969.969,0,0,1-.077.244v.257a.033.033,0,0,0,.013.026,4.822,4.822,0,0,1,.693.417.754.754,0,0,1,.308.609v.058a.145.145,0,0,1-.148.148H8.407a.145.145,0,0,1-.148-.148Z" transform="translate(-6.7 -5.2)"/></svg>