<svg xmlns="http://www.w3.org/2000/svg" width="5.206" height="5.387" viewBox="0 0 5.206 5.387"><defs><style>.a{fill:#9c9ca0;}</style></defs><path class="a" d="M6.971,9.541h.289v.673a.375.375,0,0,0,.373.373h3.9a.375.375,0,0,0,.373-.373V5.573a.375.375,0,0,0-.373-.373h-3.9a.375.375,0,0,0-.373.373v.673H6.971a.269.269,0,0,0-.271.271v.132a.269.269,0,0,0,.271.271h.289v.643H6.971a.269.269,0,0,0-.271.271v.132a.269.269,0,0,0,.271.271h.289V8.88H6.971A.269.269,0,0,0,6.7,9.15v.132A.267.267,0,0,0,6.971,9.541Zm1.19-.349a.715.715,0,0,1,.289-.571A4.519,4.519,0,0,1,9.1,8.23a.031.031,0,0,0,.012-.024V8a.752.752,0,0,1-.1-.283c-.03,0-.072-.048-.12-.2-.06-.216.006-.253.06-.247a.522.522,0,0,1-.012-.331.645.645,0,0,1,.168-.295A1.072,1.072,0,0,1,9.267,6.5a.714.714,0,0,1,.15-.078h0A.512.512,0,0,1,9.556,6.4a.592.592,0,0,1,.349.072.437.437,0,0,1,.168.156s.307.024.174.667c.042.012.072.072.024.24-.06.21-.114.222-.144.2a.908.908,0,0,1-.072.228v.24a.031.031,0,0,0,.012.024,4.519,4.519,0,0,1,.649.391A.706.706,0,0,1,11,9.192v.054a.136.136,0,0,1-.138.138H8.3a.136.136,0,0,1-.138-.138Z" transform="translate(-6.7 -5.2)"/></svg>