<svg xmlns="http://www.w3.org/2000/svg" width="4.146" height="3.844" viewBox="0 0 4.146 3.844"><defs><style>.a{fill:#fff;fill-rule:evenodd;}</style></defs><path class="a" d="M4.053.846,3.233.086a.335.335,0,0,0-.447,0,.283.283,0,0,0-.093.207.279.279,0,0,0,.051.159l-1.1.874a.922.922,0,0,0-.363-.075.9.9,0,0,0-.612.235.267.267,0,0,0,0,.4l.493.457L0,3.843l1.62-1.08.493.457a.321.321,0,0,0,.429,0A.774.774,0,0,0,2.8,2.653a.752.752,0,0,0-.081-.337L3.658,1.3a.334.334,0,0,0,.171.047.329.329,0,0,0,.224-.086.278.278,0,0,0,0-.415Z" transform="translate(0 0)"/></svg>