<svg xmlns="http://www.w3.org/2000/svg" width="3.501" height="3.271" viewBox="0 0 3.501 3.271"><defs><style>.a{fill:#fff;fill-rule:evenodd;}</style></defs><path class="a" d="M3.423.72,2.73.073a.281.281,0,0,0-.378,0,.242.242,0,0,0-.078.176.239.239,0,0,0,.043.136l-.926.744a.774.774,0,0,0-.307-.064.757.757,0,0,0-.517.2.228.228,0,0,0,0,.339l.417.389L0,3.27l1.368-.919.417.389a.269.269,0,0,0,.362,0,.661.661,0,0,0,.214-.483.644.644,0,0,0-.068-.286l.8-.865a.281.281,0,0,0,.145.04.276.276,0,0,0,.189-.073.238.238,0,0,0,0-.353Z" transform="translate(0 0)"/></svg>