<svg xmlns="http://www.w3.org/2000/svg" width="9.909" height="9.925" viewBox="0 0 9.909 9.925"><defs><style>.a{fill:#9c9ca0;fill-rule:evenodd;}</style></defs><path class="a" d="M3.69,6.224a1.718,1.718,0,0,1,0-2.47,1.74,1.74,0,0,1,1.262-.512,1.74,1.74,0,0,1,1.262.512,1.717,1.717,0,0,1,0,2.47,1.739,1.739,0,0,1-1.262.513A1.739,1.739,0,0,1,3.69,6.224ZM8.762,4.989A3.72,3.72,0,0,0,8.738,4.5L9.81,3.684q.166-.116.048-.326L8.833,1.634a.234.234,0,0,0-.31-.093L7.262,2.03A3.928,3.928,0,0,0,6.4,1.541L6.214.236a.231.231,0,0,0-.238-.21H3.929a.231.231,0,0,0-.238.21l-.19,1.3a4.325,4.325,0,0,0-.857.489L1.381,1.541a.234.234,0,0,0-.31.093L.048,3.358q-.119.21.048.326L1.167,4.5a3.633,3.633,0,0,0-.024.489,3.625,3.625,0,0,0,.024.489L.1,6.294q-.167.117-.048.326L1.071,8.344a.234.234,0,0,0,.31.093l1.262-.489a3.892,3.892,0,0,0,.857.489l.19,1.3a.231.231,0,0,0,.238.21H5.976a.231.231,0,0,0,.238-.21l.191-1.3a4.336,4.336,0,0,0,.857-.489l1.262.489a.234.234,0,0,0,.31-.093L9.857,6.62q.119-.21-.048-.326L8.738,5.478A3.711,3.711,0,0,0,8.762,4.989Z" transform="translate(0.002 -0.026)"/></svg>