<svg xmlns="http://www.w3.org/2000/svg" width="5.741" height="5.748" viewBox="0 0 5.741 5.748"><defs><style>.a{fill:#9c9ca0;fill-rule:evenodd;}</style></defs><path class="a" d="M2.485,6.13a4.45,4.45,0,0,0,1.075.78l.088.049.447-.448A.461.461,0,0,1,4.746,6.5l.887.89a.465.465,0,0,1-.012.654l-.253.249-.005-.005A1.441,1.441,0,0,1,5,8.493a1.49,1.49,0,0,1-.369.093c-.058.006-1.4.132-3.063-1.537C.365,5.841-.078,4.951.039,3.977a1.508,1.508,0,0,1,.092-.37,1.449,1.449,0,0,1,.206-.365L.329,3.236l.25-.252a.46.46,0,0,1,.652-.013l.887.89a.464.464,0,0,1-.012.654l-.147.148-.3.3.048.087A4.485,4.485,0,0,0,2.485,6.13Z" transform="translate(-0.021 -2.842)"/></svg>