<svg xmlns="http://www.w3.org/2000/svg" width="5.38" height="5.387" viewBox="0 0 5.38 5.387"><defs><style>.a{fill:#9c9ca0;fill-rule:evenodd;}</style></defs><path class="a" d="M2.33,5.924a4.17,4.17,0,0,0,1.007.731L3.42,6.7l.419-.42a.432.432,0,0,1,.611-.011L5.28,7.1a.436.436,0,0,1-.011.613l-.237.233-.005,0a1.35,1.35,0,0,1-.339.193,1.4,1.4,0,0,1-.346.087c-.054.006-1.311.124-2.87-1.441C.343,5.652-.072,4.818.038,3.905a1.413,1.413,0,0,1,.086-.346,1.357,1.357,0,0,1,.193-.342L.31,3.211l.234-.236a.431.431,0,0,1,.611-.012l.831.834a.435.435,0,0,1-.011.613l-.138.139-.281.281.045.081A4.2,4.2,0,0,0,2.33,5.924Z" transform="translate(-0.021 -2.842)"/></svg>