<svg xmlns="http://www.w3.org/2000/svg" width="10.808" height="9.907" viewBox="0 0 10.808 9.907"><defs><style>.a{fill:#9c9ca0;fill-rule:evenodd;}</style></defs><path class="a" d="M4.66,8.509A8.407,8.407,0,0,0,6.683,9.854l.166.084.841-.772a.926.926,0,0,1,1.227-.021l1.669,1.534a.754.754,0,0,1-.022,1.128l-.476.429-.01-.009a2.787,2.787,0,0,1-.682.355,3.019,3.019,0,0,1-.7.16c-.109.011-2.633.228-5.766-2.65C.669,8.01-.166,6.476.055,4.8a2.42,2.42,0,0,1,.172-.637,2.449,2.449,0,0,1,.388-.629L.6,3.521l.47-.435A.924.924,0,0,1,2.3,3.064L3.968,4.6a.753.753,0,0,1-.022,1.128l-.277.255L3.1,6.5c.03.048.06.1.091.149A7.777,7.777,0,0,0,4.66,8.509Z" transform="translate(-0.021 -2.842)"/></svg>