<svg xmlns="http://www.w3.org/2000/svg" width="62.333" height="68" viewBox="0 0 62.333 68"><defs><style>.a{fill:#fff;}</style></defs><path class="a" d="M333.084,25.208A9.208,9.208,0,1,1,323.876,16a9.208,9.208,0,0,1,9.208,9.208Zm0,0" transform="translate(-272.876 -13.875)"/><path class="a" d="M310,22.667a11.333,11.333,0,1,1,11.333-11.334A11.345,11.345,0,0,1,310,22.667ZM310,4.25a7.083,7.083,0,1,0,7.083,7.083A7.091,7.091,0,0,0,310,4.25Zm0,0" transform="translate(-259.001 0)"/><path class="a" d="M333.084,366.541a9.208,9.208,0,1,1-9.208-9.209A9.208,9.208,0,0,1,333.084,366.541Zm0,0" transform="translate(-272.876 -309.874)"/><path class="a" d="M310,364a11.333,11.333,0,1,1,11.333-11.333A11.345,11.345,0,0,1,310,364Zm0-18.417a7.083,7.083,0,1,0,7.083,7.084A7.091,7.091,0,0,0,310,345.582Zm0,0" transform="translate(-259.001 -295.999)"/><path class="a" d="M34.417,195.876a9.208,9.208,0,1,1-9.209-9.208A9.208,9.208,0,0,1,34.417,195.876Zm0,0" transform="translate(-13.875 -161.876)"/><path class="a" d="M11.333,193.334A11.333,11.333,0,1,1,22.667,182,11.345,11.345,0,0,1,11.333,193.334Zm0-18.416A7.083,7.083,0,1,0,18.417,182,7.091,7.091,0,0,0,11.333,174.918Zm0,0" transform="translate(0 -148.001)"/><path class="a" d="M117.185,110.873a2.834,2.834,0,0,1-1.405-5.3l26.29-14.988a2.834,2.834,0,1,1,2.805,4.924L118.584,110.5a2.815,2.815,0,0,1-1.4.371Zm0,0" transform="translate(-99.161 -78.233)"/><path class="a" d="M143.492,286.877a2.815,2.815,0,0,1-1.4-.372L115.8,271.517a2.834,2.834,0,0,1,2.805-4.924L144.9,281.581a2.834,2.834,0,0,1-1.405,5.3Zm0,0" transform="translate(-99.181 -230.861)"/></svg>