<svg xmlns="http://www.w3.org/2000/svg" width="68" height="60.764" viewBox="0 0 68 60.764"><defs><style>.a{fill:#fff;}</style></defs><g transform="translate(0 -23.224)"><g transform="translate(0 23.224)"><g transform="translate(0 0)"><path class="a" d="M53.041,23.224H32.162a4.988,4.988,0,0,0-3.525,1.461L1.46,51.856a4.988,4.988,0,0,0,0,7.053L22.339,79.788a4.985,4.985,0,0,0,7.051,0L56.566,52.617a5,5,0,0,0,1.461-3.53V28.21A4.985,4.985,0,0,0,53.041,23.224Z" transform="translate(0 -23.224)"/></g></g><g transform="translate(34.124 28.21)"><path class="a" d="M247.877,55.224l0,23.21A4.331,4.331,0,0,1,246.6,81.5l-27.615,27.615.424.424a4.985,4.985,0,0,0,7.051,0L251.4,84.607a4.98,4.98,0,0,0,1.464-3.525V60.21A4.985,4.985,0,0,0,247.877,55.224Z" transform="translate(-218.988 -55.224)"/></g></g></svg>