<svg xmlns="http://www.w3.org/2000/svg" width="24.011" height="19.99" viewBox="0 0 24.011 19.99"><defs><style>.a{opacity:0.5;}.b{fill:#9c9ca0;}</style></defs><g class="a" transform="translate(0 0)"><g transform="translate(0 0)"><path class="b" d="M12.006,26.331A12.033,12.033,0,0,0,2.722,45.986c.262-2.1,2.361-3.885,5.3-4.728a5.725,5.725,0,0,0,7.889.073c2.968.917,5.021,2.8,5.088,4.991a12.03,12.03,0,0,0-9-19.99Zm0,15.115a4.283,4.283,0,0,1-2.13-.576A5.447,5.447,0,0,1,7.267,36.1c0-2.945,2.126-5.342,4.739-5.342s4.739,2.4,4.739,5.342a5.433,5.433,0,0,1-2.681,4.8A4.273,4.273,0,0,1,12.006,41.446Z" transform="translate(0 -26.331)"/></g></g></svg>